<svg version="1.1" id="Layer_1" xmlns="http://www.w3.org/2000/svg" xmlns:xlink="http://www.w3.org/1999/xlink" x="0px" y="0px"
	 width="100%" viewBox="0 0 1898 1220" enableBackground="new 0 0 1898 1220" xml:space="preserve">
<path fill="#F2F2F2" opacity="1.000000" stroke="none" 
	d="
M1855.000000,1221.000000 
	C1236.666870,1221.000000 618.833679,1221.000000 1.000414,1221.000000 
	C1.000276,814.333618 1.000276,407.667267 1.000138,1.000687 
	C633.666199,1.000458 1266.332397,1.000458 1898.998901,1.000229 
	C1898.999268,407.666046 1898.999268,814.332092 1898.999634,1220.999023 
	C1884.500000,1221.000000 1870.000000,1221.000000 1855.000000,1221.000000 
M901.857666,973.095032 
	C901.857666,973.095032 901.731445,973.134705 901.807495,973.729126 
	C902.195984,974.169556 902.584473,974.609985 903.003296,975.005249 
	C903.003296,975.005249 902.949829,975.014587 903.097839,975.612549 
	C903.702698,976.136597 904.307495,976.660645 904.885132,977.092834 
	C904.885132,977.092834 904.807007,977.148193 905.021362,977.787842 
	C906.146545,979.310303 907.271790,980.832703 908.396973,982.355103 
	C908.849060,981.987854 909.301086,981.620544 909.753174,981.253296 
	C909.753174,959.265137 909.753174,937.277039 909.753174,914.578918 
	C908.174805,915.154724 907.075012,915.555908 905.672668,916.709900 
	C905.672668,932.147278 905.672668,947.584656 905.672668,963.022095 
	C905.127380,963.066101 904.582153,963.110046 904.036865,963.154053 
	C903.018433,962.085754 901.930054,961.075195 900.992371,959.940125 
	C890.493896,947.231628 879.958557,934.552795 869.561157,921.761963 
	C863.887634,914.782593 857.578674,912.904785 847.228821,916.311584 
	C849.107117,917.406799 850.243530,918.617249 851.415710,918.652954 
	C855.363770,918.773071 856.591980,921.193848 856.910278,924.470764 
	C857.135193,926.786926 857.140564,929.130127 857.143127,931.461304 
	C857.159973,946.627014 857.190186,961.792847 857.115967,976.958191 
	C857.099304,980.362305 857.809448,982.219299 861.874817,980.120850 
	C861.874817,971.516602 861.874817,962.869080 861.874817,954.221497 
	C861.874817,945.670593 861.874817,937.119751 861.874817,928.568848 
	C862.382080,928.440613 862.889282,928.312378 863.396545,928.184204 
	C873.254333,939.804626 883.112061,951.425049 893.139221,963.675537 
	C894.423096,965.129456 895.706970,966.583313 897.207336,968.455872 
	C897.395752,968.722107 897.644592,968.907227 898.113159,969.629517 
	C899.017029,970.492859 899.920837,971.356201 900.893127,972.142334 
	C900.893127,972.142334 900.797852,972.102722 900.944092,972.650146 
	C901.248535,972.842529 901.553040,973.034912 901.857666,973.095032 
M1281.999023,975.995361 
	C1281.999023,975.995361 1281.979492,976.005554 1282.322632,976.491516 
	C1282.843018,976.743469 1283.363525,976.995422 1283.830688,977.143433 
	C1283.830688,977.143433 1283.751709,977.229492 1284.010132,977.848572 
	C1293.828247,984.547363 1304.414307,984.665771 1314.864990,980.283997 
	C1324.231812,976.356750 1328.365723,968.237854 1328.525879,958.319641 
	C1328.740601,945.024719 1328.520264,931.723267 1328.620850,918.425598 
	C1328.646362,915.060242 1327.282471,914.381409 1323.966064,915.554199 
	C1323.966064,928.079224 1324.237793,940.688721 1323.835571,953.276733 
	C1323.668945,958.491272 1322.447266,963.771179 1320.995728,968.817261 
	C1319.603027,973.659729 1315.753418,976.522766 1310.754028,977.155579 
	C1306.213745,977.730164 1301.603760,977.753906 1296.507446,977.946960 
	C1294.379639,976.626953 1292.251709,975.306946 1290.079834,973.403564 
	C1289.766968,973.194641 1289.453979,972.985718 1289.118652,972.903320 
	C1289.118652,972.903320 1289.246216,972.887451 1289.110352,972.160461 
	C1287.971680,969.467041 1286.833008,966.773682 1285.754761,963.264587 
	C1285.536743,962.486633 1285.318604,961.708679 1285.365845,960.043335 
	C1285.365845,945.153992 1285.365845,930.264648 1285.365845,914.979309 
	C1281.277710,914.979309 1277.638062,914.787842 1274.031006,915.047607 
	C1271.678467,915.216980 1269.373169,916.041870 1267.046631,916.573059 
	C1268.426270,920.601562 1271.694946,918.040100 1274.357788,918.833679 
	C1274.357788,918.833679 1274.729004,918.900085 1274.905884,919.652161 
	C1275.261597,922.753113 1275.872192,925.849609 1275.926392,928.955811 
	C1276.104736,939.198792 1275.591553,949.481506 1276.345337,959.674927 
	C1276.715332,964.679382 1279.291260,969.520630 1280.857544,974.748474 
	C1280.857544,974.748474 1281.045532,974.998474 1281.117432,975.521179 
	C1281.411621,975.686401 1281.705811,975.851624 1281.999023,975.995361 
M1038.853760,980.993530 
	C1040.910034,980.941650 1042.966431,980.889709 1045.353149,980.930603 
	C1045.529419,980.633850 1045.705566,980.337097 1046.032959,979.203247 
	C1045.993164,978.349915 1045.953369,977.496643 1046.138428,975.932251 
	C1046.138428,966.469177 1046.138428,957.006104 1046.138428,947.017456 
	C1053.158447,947.017456 1059.627319,947.056763 1066.095215,946.999756 
	C1069.003662,946.974121 1071.503906,947.130676 1071.335083,951.122375 
	C1071.307373,951.779541 1072.649048,952.494568 1073.357910,953.182922 
	C1073.844360,952.439392 1074.723755,951.710144 1074.751221,950.950012 
	C1074.895874,946.958862 1074.912476,942.957092 1074.778320,938.965515 
	C1074.736084,937.704590 1074.090576,936.463989 1073.464111,934.344055 
	C1072.280396,935.848938 1071.352173,936.496338 1071.410034,937.038513 
	C1071.926270,941.876831 1068.586060,942.593628 1065.148682,942.729187 
	C1059.833862,942.938782 1054.490112,942.959900 1049.191650,942.589722 
	C1048.126587,942.515259 1046.433472,940.383057 1046.357544,939.119873 
	C1046.038330,933.810852 1046.296021,928.470093 1046.192627,923.143860 
	C1046.139038,920.385132 1047.265869,919.177185 1050.023071,919.270569 
	C1055.676880,919.461853 1061.385864,919.153809 1066.970947,919.855957 
	C1070.721191,920.327454 1074.297729,922.180603 1078.811035,923.705872 
	C1079.112061,921.819702 1079.617798,918.651489 1080.164795,915.224976 
	C1062.265259,915.224976 1045.202881,915.224976 1028.140625,915.224976 
	C1027.901489,915.589050 1027.662231,915.953125 1027.423096,916.317200 
	C1028.365723,917.121887 1029.407104,918.710449 1030.234985,918.605957 
	C1036.310059,917.839355 1036.607666,921.711182 1036.616821,926.015991 
	C1036.627808,931.177490 1036.701172,936.338806 1036.746216,941.500244 
	C1036.858032,954.307129 1036.969238,967.114075 1037.073975,980.457764 
	C1037.377686,980.587158 1037.681274,980.716553 1038.853760,980.993530 
M995.011719,964.182495 
	C992.421753,956.652771 989.914795,949.093079 987.216187,941.602478 
	C984.947571,935.305481 982.455627,929.088806 980.011230,922.411865 
	C980.011230,922.411865 979.879089,922.004944 979.984558,921.140503 
	C980.142700,918.492004 980.300842,915.843506 980.483704,912.782349 
	C979.439331,912.889771 978.217896,913.015320 976.440491,913.102173 
	C976.282227,913.199402 976.123901,913.296692 975.318970,913.500549 
	C974.266479,914.662720 972.881592,915.663757 972.225159,917.017944 
	C970.412537,920.757690 968.900024,924.643127 967.276306,928.474060 
	C959.946899,945.766846 952.620239,963.060730 945.238770,980.481018 
	C948.541626,981.544312 950.232056,981.080261 951.387573,977.554688 
	C953.336609,971.607788 955.915405,965.839783 958.630310,960.189209 
	C959.382202,958.624390 961.510071,956.777527 963.076660,956.711060 
	C969.713196,956.429382 976.376160,956.769653 982.989868,956.954224 
	C982.989868,956.954224 983.064148,956.988464 983.150879,957.736572 
	C985.081543,963.189636 986.985718,968.652344 988.949097,974.093567 
	C991.759399,981.882141 992.363770,982.186340 1001.157654,980.265259 
	C999.110718,975.113098 997.085938,970.016846 995.034058,965.011475 
	C995.034058,965.011475 995.099854,964.942383 995.011719,964.182495 
M1117.814941,920.055969 
	C1117.814941,940.267456 1117.814941,960.478943 1117.814941,980.753906 
	C1122.027466,980.753906 1124.786621,980.753906 1127.732910,980.753906 
	C1127.732910,958.806885 1127.732910,937.123657 1127.732910,915.327820 
	C1121.562988,915.327820 1115.695435,915.327820 1109.324463,915.327820 
	C1110.556030,920.544495 1114.460205,918.037537 1117.228516,919.047668 
	C1117.228516,919.047668 1117.597168,919.161926 1117.814941,920.055969 
M605.105408,937.185913 
	C605.057312,934.090271 605.009277,930.994629 605.233398,927.174072 
	C605.261780,924.056458 605.565430,920.902771 605.164124,917.841492 
	C605.029907,916.818054 603.094727,916.030640 601.247131,915.015808 
	C600.505249,915.053467 599.763367,915.091187 598.273865,915.015198 
	C597.003113,916.287598 595.246460,917.336060 594.540222,918.868591 
	C589.877930,928.986328 585.455627,939.214417 580.925598,949.393433 
	C578.628967,954.554199 576.270813,959.687622 573.586609,965.614624 
	C566.846436,951.781250 559.772034,939.251221 554.601990,925.979370 
	C550.916565,916.518555 545.459473,913.197144 536.030029,914.976013 
	C535.869141,915.006348 535.673462,914.926453 535.534851,914.988892 
	C534.366089,915.514893 533.206909,916.062256 532.044800,916.603149 
	C533.084106,917.304199 534.087036,918.532898 535.169434,918.607422 
	C538.427124,918.831482 540.051208,920.427002 540.342834,923.539734 
	C540.590759,926.186646 540.910522,928.841431 540.920349,931.493774 
	C540.976562,946.648621 540.988342,961.804016 540.917725,976.958740 
	C540.903809,979.951660 541.247620,982.056580 545.799927,980.248779 
	C545.799927,964.136719 545.799927,947.725525 545.799927,931.314270 
	C546.218506,931.249390 546.637085,931.184509 547.055603,931.119690 
	C554.972168,947.741516 562.888672,964.363342 570.805237,980.985168 
	C571.366760,980.900940 571.928284,980.816711 572.489868,980.732544 
	C573.273071,979.181763 574.148315,977.669983 574.825134,976.074158 
	C580.668579,962.296936 586.419006,948.479736 592.370483,934.749573 
	C593.080444,933.111633 594.827454,931.923218 595.992371,931.544556 
	C595.992371,947.917969 595.992371,964.291382 595.992371,980.858459 
	C598.716980,980.858459 600.844849,980.858459 603.754395,980.940979 
	C604.276245,980.240295 605.253967,979.538635 605.252502,978.839050 
	C605.224243,965.261536 605.081543,951.684204 605.105408,937.185913 
M1104.279541,824.500244 
	C1104.278076,781.169983 1104.248657,737.839600 1104.317505,694.509460 
	C1104.324585,690.026733 1105.023804,685.549500 1105.219238,681.061768 
	C1105.784058,668.098450 1106.417725,655.134216 1106.665894,642.163452 
	C1106.740967,638.235718 1105.984863,634.191284 1104.920288,630.393555 
	C1104.511475,628.935303 1102.225220,627.171265 1100.710938,627.089172 
	C1099.200073,627.007263 1096.778442,628.508423 1096.166016,629.925049 
	C1094.331665,634.167480 1092.628540,638.615601 1091.877930,643.149597 
	C1089.622192,656.775513 1087.880615,670.486023 1085.834351,684.147888 
	C1085.546631,686.068970 1084.677124,687.902893 1084.076904,689.777161 
	C1083.494629,689.710327 1082.912231,689.643494 1082.329956,689.576721 
	C1082.140869,687.609741 1081.727051,685.634460 1081.799438,683.677185 
	C1082.237305,671.819214 1080.610596,660.353943 1074.820068,649.860046 
	C1073.814453,648.037598 1070.974976,646.020447 1069.178223,646.188171 
	C1067.460693,646.348572 1065.370728,648.990967 1064.577026,650.991638 
	C1063.499878,653.706482 1063.635986,656.879883 1062.970581,659.792480 
	C1062.717651,660.899902 1061.685791,661.829407 1061.008911,662.839966 
	C1060.137329,662.206238 1059.105591,661.708496 1058.427490,660.910339 
	C1057.035278,659.271545 1056.183228,656.824524 1054.467041,655.894470 
	C1052.063843,654.592041 1048.650391,653.234924 1046.472290,654.049316 
	C1044.762329,654.688599 1043.516113,658.555542 1043.423462,661.039368 
	C1043.302856,664.273010 1044.618896,667.542786 1045.123901,670.826599 
	C1045.305176,672.005554 1045.253174,673.476807 1044.664062,674.407410 
	C1044.377686,674.860107 1042.524292,674.622009 1041.527710,674.273865 
	C1036.326904,672.456909 1034.909180,673.127502 1033.738159,678.735229 
	C1033.073730,681.916626 1032.870361,685.194214 1032.420898,688.730957 
	C1025.729248,687.484985 1021.396545,681.196045 1014.466492,681.637756 
	C1015.088684,683.049377 1015.990540,683.907166 1017.037292,684.515747 
	C1021.355591,687.026794 1025.741455,689.421936 1030.047852,691.952881 
	C1031.156250,692.604370 1032.426147,693.400330 1033.002441,694.465149 
	C1035.367798,698.835754 1033.858398,711.262634 1030.168091,714.792908 
	C1025.979126,718.800171 1021.621643,722.829651 1016.726929,725.865356 
	C998.570618,737.126099 985.076965,752.168213 977.315918,772.195984 
	C976.941589,773.161804 976.103638,773.947876 974.898743,775.632568 
	C973.842834,773.290100 973.056885,771.754333 972.442932,770.152649 
	C966.147339,753.728455 955.965698,740.341370 941.600281,730.100525 
	C934.560303,725.081848 927.753235,719.737183 920.819763,714.568237 
	C915.201904,710.380188 916.741333,704.171997 916.466675,698.566772 
	C916.421204,697.639221 918.231079,696.369751 919.425659,695.673645 
	C926.328674,691.650818 933.319702,687.779358 940.244141,683.792603 
	C941.844543,682.871094 943.301331,681.700073 944.824219,680.643921 
	C944.566650,680.112305 944.309082,679.580750 944.051514,679.049194 
	C942.429016,679.595459 940.684143,679.918213 939.205994,680.727844 
	C933.662659,683.764709 928.238464,687.018860 922.697388,690.059937 
	C921.111328,690.930420 919.281494,691.356689 917.416321,692.040527 
	C917.010071,686.460083 916.927368,681.647400 916.184082,676.939026 
	C915.890076,675.076782 914.458801,672.530579 912.935059,671.977722 
	C911.516113,671.462830 909.199646,673.022095 907.444641,673.974670 
	C906.292969,674.599609 905.437012,675.769043 904.448669,676.694702 
	C904.046631,676.466003 903.644653,676.237305 903.242676,676.008606 
	C903.665649,673.998047 904.090393,671.987854 904.511292,669.976868 
	C905.258545,666.406128 906.512146,662.842773 906.567505,659.261108 
	C906.603516,656.937378 905.347595,653.043640 903.855225,652.600830 
	C901.475525,651.894714 898.128174,652.950378 895.738525,654.261169 
	C893.896484,655.271606 892.897705,657.818298 891.521973,659.680481 
	C890.717346,660.769531 889.908691,661.855652 889.101868,662.943054 
	C888.654175,662.851807 888.206482,662.760559 887.758789,662.669312 
	C887.175537,658.867920 886.642761,655.057922 885.993225,651.267883 
	C885.452209,648.111572 884.961914,644.732117 880.803833,644.392883 
	C877.122192,644.092590 875.668274,646.778870 874.341370,649.613525 
	C868.975952,661.075134 867.312561,673.121582 868.403198,685.649170 
	C868.540222,687.222168 868.199951,688.836670 868.080811,690.431946 
	C867.609070,690.492432 867.137268,690.552979 866.665466,690.613464 
	C866.098999,689.364258 865.267334,688.166443 865.013855,686.856628 
	C864.128967,682.283936 863.407654,677.678223 862.689819,673.074768 
	C860.793213,660.912354 859.055725,648.723145 856.967773,636.593994 
	C856.442078,633.540466 855.166565,630.489441 853.649170,627.763733 
	C851.546448,623.986694 847.454224,624.123352 845.383789,627.924622 
	C844.539429,629.474792 844.033813,631.400269 843.996338,633.168213 
	C843.745972,644.972168 843.336243,656.787842 843.629517,668.583496 
	C843.868835,678.211426 845.619263,687.814514 845.656067,697.432617 
	C845.862671,751.428772 845.752930,805.426208 845.751221,859.423157 
	C845.751160,861.365356 845.751282,863.307495 845.751282,865.631592 
	C861.769043,865.631592 877.086121,865.481995 892.396912,865.727661 
	C896.689758,865.796570 897.667358,864.322510 897.643860,860.292664 
	C897.487183,833.461731 897.542297,806.629456 897.589111,779.797729 
	C897.593262,777.418335 898.029053,775.039734 898.401184,771.277588 
	C900.699097,773.192200 902.155823,773.986206 903.030029,775.199829 
	C911.295410,786.673767 920.060059,797.847839 927.503296,809.839233 
	C936.574219,824.452820 939.002563,841.273193 940.643677,858.092896 
	C940.966675,861.403442 941.914246,862.524841 945.446899,862.489197 
	C964.943787,862.292114 984.443726,862.403992 1003.942627,862.389038 
	C1005.554993,862.387756 1007.167236,862.231140 1008.981628,862.136108 
	C1010.784607,845.073792 1012.990112,828.289795 1021.247375,813.303833 
	C1029.283813,798.718506 1039.708496,785.764038 1050.967529,773.256165 
	C1052.041626,775.682312 1052.425537,777.742554 1052.429321,779.803467 
	C1052.478516,806.635193 1052.549561,833.467468 1052.401367,860.298401 
	C1052.378906,864.327576 1053.347412,865.829895 1057.639648,865.725342 
	C1069.132202,865.445312 1080.635986,865.633301 1092.135376,865.635010 
	C1096.066040,865.635559 1099.996582,865.635193 1104.278442,865.635193 
	C1104.278442,851.780457 1104.278442,838.640381 1104.279541,824.500244 
M1189.549438,915.008667 
	C1176.476807,920.087036 1169.544189,930.021057 1167.434082,943.514160 
	C1164.405029,962.884460 1174.108032,979.027161 1191.466064,981.833984 
	C1198.571655,982.982910 1203.830200,985.511719 1208.032593,990.981812 
	C1208.535522,991.636536 1209.194702,992.173645 1209.796753,992.749146 
	C1219.370850,1001.900085 1224.280396,1002.642944 1236.163452,996.610779 
	C1237.020264,996.175964 1237.585083,995.165710 1238.285645,994.423035 
	C1237.213501,994.101868 1236.057739,993.341858 1235.082397,993.528076 
	C1226.479736,995.171021 1215.911621,989.689514 1211.872925,981.329346 
	C1232.512573,970.098816 1240.026733,951.038208 1231.638672,931.190247 
	C1225.228882,916.022766 1208.327881,909.307983 1189.549438,915.008667 
M803.915588,919.588745 
	C796.465637,913.996704 787.957581,912.223022 778.897217,913.108887 
	C764.985046,914.469238 755.149353,921.952942 750.389526,934.858154 
	C745.444702,948.264954 746.233643,961.729065 756.044922,972.907349 
	C765.227417,983.369141 777.615479,985.143250 790.422974,981.551941 
	C816.385742,974.271729 824.094849,939.826599 803.915588,919.588745 
M1393.497925,919.332947 
	C1400.295654,920.074280 1407.918091,917.887085 1413.748657,925.914368 
	C1414.468872,921.808594 1415.026733,918.628845 1415.669678,914.963440 
	C1398.528076,914.963440 1382.225586,914.939758 1365.923706,915.028198 
	C1365.036743,915.033020 1364.154663,915.974854 1363.270264,916.480469 
	C1364.138672,917.235657 1365.100220,918.725769 1365.860840,918.629456 
	C1371.750977,917.883667 1371.969238,921.671753 1371.979370,925.803711 
	C1372.019653,942.296082 1372.081665,958.788452 1372.134155,975.280823 
	C1372.139771,977.051941 1372.134888,978.823120 1372.134888,981.025024 
	C1385.611938,981.025024 1398.408447,981.046448 1411.204956,981.014099 
	C1416.064087,981.001831 1419.118408,975.005737 1417.368042,971.576050 
	C1412.543945,973.118652 1408.054565,975.152344 1403.360962,975.895203 
	C1398.140259,976.721558 1392.727539,976.270325 1387.409302,976.567871 
	C1383.468628,976.788452 1381.985107,974.837097 1381.953003,971.212341 
	C1381.892456,964.383911 1381.836914,957.555176 1381.719482,950.727600 
	C1381.672363,947.994934 1382.813110,946.899780 1385.617554,946.984192 
	C1390.944092,947.144470 1396.278931,947.066650 1401.609863,947.019348 
	C1404.454224,946.994141 1406.449829,947.759583 1406.783203,951.057373 
	C1406.866089,951.878357 1407.974365,952.595825 1408.611572,953.360962 
	C1409.144287,952.503967 1410.105713,951.662476 1410.137207,950.787354 
	C1410.293579,946.461487 1410.295288,942.123108 1410.122925,937.798279 
	C1410.088989,936.949646 1409.045654,936.141235 1408.467773,935.314331 
	C1407.886108,936.151001 1406.809082,936.988159 1406.809937,937.824280 
	C1406.813110,941.133484 1404.807861,942.194641 1402.078003,942.466064 
	C1399.437988,942.728577 1396.770752,942.953430 1394.124756,942.876282 
	C1381.737183,942.515137 1381.738281,942.475891 1381.726074,930.180786 
	C1381.715210,919.301025 1381.715210,919.301025 1393.497925,919.332947 
M978.836975,636.282776 
	C967.643738,639.598328 960.900208,647.050415 959.383850,658.561157 
	C957.999268,669.071533 962.231323,677.573059 970.940186,683.465027 
	C978.007019,688.246094 985.756165,689.232727 994.871094,685.925049 
	C984.047424,680.424377 978.120667,672.629272 978.335754,661.315186 
	C978.549561,650.065002 984.488770,642.232300 994.849121,637.520508 
	C994.681458,637.045837 994.513794,636.571228 994.346130,636.096558 
	C989.442749,636.096558 984.539368,636.096558 978.836975,636.282776 
M676.256226,982.903931 
	C691.669739,983.925781 703.747925,978.324951 710.768738,964.265686 
	C717.254150,951.278503 716.827698,937.863708 709.056519,925.662231 
	C702.466431,915.315308 691.658936,912.342163 679.831970,912.968811 
	C661.581665,913.935669 648.257629,927.838196 647.188171,946.900085 
	C646.076233,966.720947 656.116516,979.493164 676.256226,982.903931 
M919.133972,647.096497 
	C916.082275,646.690613 913.037109,646.209656 909.973328,645.941101 
	C909.348267,645.886230 908.653198,646.629395 907.990356,647.004700 
	C908.457642,647.743713 908.756592,648.807434 909.426880,649.155029 
	C910.882507,649.909790 912.489929,650.501648 914.102051,650.802246 
	C921.261353,652.137146 928.428528,653.453857 935.632324,654.506897 
	C937.038330,654.712463 938.619934,653.716553 940.120544,653.274841 
	C938.863220,652.479065 937.702820,651.306824 936.331543,650.953796 
	C930.884094,649.551453 925.370728,648.405029 919.133972,647.096497 
M978.859497,612.291931 
	C978.182556,604.732971 977.505615,597.173950 976.746521,588.696899 
	C972.563049,593.037231 973.138489,615.556641 977.484253,621.424744 
	C978.061768,617.944031 978.459106,615.549683 978.859497,612.291931 
M950.685791,645.988159 
	C950.125671,644.767151 949.900940,642.986267 948.950562,642.416687 
	C943.171326,638.953918 937.281982,635.659729 931.291260,632.577881 
	C930.082703,631.956055 928.280640,632.487976 926.752197,632.487976 
	C926.710144,632.988525 926.668030,633.489014 926.625977,633.989563 
	C933.597107,638.009338 940.552429,642.057068 947.562317,646.007935 
	C948.309631,646.429199 949.376038,646.284363 950.685791,645.988159 
M1002.614685,627.497681 
	C1003.974548,631.364197 1005.610474,628.595093 1006.562012,627.426819 
	C1011.578918,621.266968 1016.473755,615.004578 1021.265564,608.667786 
	C1022.025330,607.663086 1022.044800,606.098633 1022.406555,604.792908 
	C1021.889038,604.532776 1021.371521,604.272583 1020.854065,604.012451 
	C1014.866760,611.647522 1008.879456,619.282593 1002.614685,627.497681 
M934.964844,605.252563 
	C931.115967,605.974731 933.486877,607.989685 934.374756,609.156433 
	C937.880981,613.764099 941.561890,618.240662 945.239807,622.715088 
	C947.758423,625.779175 950.379333,628.759155 952.954468,631.776794 
	C953.529419,631.313110 954.104370,630.849487 954.679321,630.385803 
	C949.921387,620.993591 941.724182,614.062683 934.964844,605.252563 
M941.835693,703.871033 
	C942.831604,704.107788 944.440430,704.854614 944.731567,704.504700 
	C949.245178,699.081604 953.628967,693.547424 957.904541,687.933716 
	C958.314758,687.395203 957.805542,686.156494 957.723083,685.242798 
	C956.815186,685.381653 955.474304,685.184387 955.065735,685.710815 
	C950.577515,691.493347 946.234619,697.388733 941.835693,703.871033 
M922.156433,672.485046 
	C930.155823,671.051514 938.162109,669.653870 946.142944,668.123291 
	C946.860901,667.985596 947.414062,666.988220 948.043762,666.390076 
	C947.119995,665.963989 946.110413,665.045654 945.285889,665.189331 
	C938.344177,666.398865 931.415466,667.709229 924.540649,669.247925 
	C923.493469,669.482239 922.743591,671.044861 922.156433,672.485046 
M991.029297,703.281799 
	C994.575806,711.294983 996.808533,719.968384 1002.634216,726.892822 
	C1002.519165,723.467163 1001.399536,720.491943 1000.246582,717.529663 
	C998.210266,712.297607 996.222046,707.044556 994.034668,701.876038 
	C993.690613,701.063232 992.406006,700.648499 991.556274,700.049744 
	C991.324829,700.907532 991.093384,701.765259 991.029297,703.281799 
M961.803528,699.995667 
	C959.063293,709.095093 953.668823,717.426880 952.506531,728.460327 
	C954.346252,727.227234 954.952576,727.051514 955.087585,726.696533 
	C958.328735,718.178040 961.544556,709.649292 964.599670,701.063538 
	C964.692810,700.801758 963.017761,699.910767 961.803528,699.995667 
M1026.601685,652.781067 
	C1033.691528,651.368164 1040.781494,649.955322 1047.871338,648.542419 
	C1047.682861,647.643250 1047.494385,646.744019 1047.305908,645.844849 
	C1037.584595,646.957764 1028.084839,649.289307 1018.525818,651.294617 
	C1018.623657,652.099731 1018.721558,652.904907 1018.819397,653.710022 
	C1021.137939,653.460510 1023.456482,653.210999 1026.601685,652.781067 
M1013.889771,662.909180 
	C1012.580566,663.001953 1011.271423,663.094727 1009.962219,663.187561 
	C1009.938660,663.775269 1009.915161,664.362976 1009.891663,664.950745 
	C1017.654724,667.632568 1025.778564,667.739685 1033.843872,668.264160 
	C1033.985962,667.458740 1034.128052,666.653259 1034.270264,665.847839 
	C1027.737061,664.894287 1021.203918,663.940674 1013.889771,662.909180 
M960.950623,621.816833 
	C962.560547,625.376770 964.170410,628.936707 966.220459,633.469849 
	C967.918091,628.017944 959.977966,608.105530 955.828674,606.957092 
	C957.577087,611.982605 959.160217,616.533325 960.950623,621.816833 
M999.649231,686.253601 
	C1004.682251,691.737183 1009.715210,697.220764 1014.748230,702.704407 
	C1015.235962,702.420837 1015.723633,702.137268 1016.211365,701.853760 
	C1015.880798,700.663574 1015.902771,699.153442 1015.161194,698.336243 
	C1011.051514,693.807800 1006.802307,689.400818 1002.446655,685.108887 
	C1002.047913,684.716003 1000.560791,685.427551 999.649231,686.253601 
M990.585083,610.064026 
	C985.164673,625.108948 984.996155,626.002930 987.629517,630.223999 
	C990.027405,621.998230 992.197876,614.552795 994.368286,607.107361 
	C994.084900,607.007019 993.801453,606.906677 993.518066,606.806335 
	C992.721619,607.740784 991.925171,608.675171 990.585083,610.064026 
M981.009888,711.660339 
	C980.011169,705.440613 981.181946,698.854980 978.399597,691.529236 
	C975.878479,698.613403 977.714844,714.946716 980.919495,716.899658 
	C980.919495,715.238037 980.919495,713.813782 981.009888,711.660339 
M1016.535461,635.982849 
	C1018.881470,634.226196 1021.227478,632.469604 1023.573486,630.712952 
	C1023.140991,630.140320 1022.708435,629.567749 1022.275940,628.995178 
	C1015.933411,633.160950 1009.590942,637.326660 1003.248413,641.492432 
	C1003.679321,642.205017 1004.110229,642.917664 1004.541138,643.630249 
	C1008.361938,641.245789 1012.182678,638.861328 1016.535461,635.982849 
z"/>
<path fill="#7A5FB4" opacity="1.000000" stroke="none" 
	d="
M1104.279053,825.000305 
	C1104.278442,838.640381 1104.278442,851.780457 1104.278442,865.635193 
	C1099.996582,865.635193 1096.066040,865.635559 1092.135376,865.635010 
	C1080.635986,865.633301 1069.132202,865.445312 1057.639648,865.725342 
	C1053.347412,865.829895 1052.378906,864.327576 1052.401367,860.298401 
	C1052.549561,833.467468 1052.478516,806.635193 1052.429321,779.803467 
	C1052.425537,777.742554 1052.041626,775.682312 1050.967529,773.256165 
	C1039.708496,785.764038 1029.283813,798.718506 1021.247375,813.303833 
	C1012.990112,828.289795 1010.784607,845.073792 1008.981628,862.136108 
	C1007.167236,862.231140 1005.554993,862.387756 1003.942627,862.389038 
	C984.443726,862.403992 964.943787,862.292114 945.446899,862.489197 
	C941.914246,862.524841 940.966675,861.403442 940.643677,858.092896 
	C939.002563,841.273193 936.574219,824.452820 927.503296,809.839233 
	C920.060059,797.847839 911.295410,786.673767 903.030029,775.199829 
	C902.155823,773.986206 900.699097,773.192200 898.401184,771.277588 
	C898.029053,775.039734 897.593262,777.418335 897.589111,779.797729 
	C897.542297,806.629456 897.487183,833.461731 897.643860,860.292664 
	C897.667358,864.322510 896.689758,865.796570 892.396912,865.727661 
	C877.086121,865.481995 861.769043,865.631592 845.751282,865.631592 
	C845.751282,863.307495 845.751160,861.365356 845.751221,859.423157 
	C845.752930,805.426208 845.862671,751.428772 845.656067,697.432617 
	C845.619263,687.814514 843.868835,678.211426 843.629517,668.583496 
	C843.336243,656.787842 843.745972,644.972168 843.996338,633.168213 
	C844.033813,631.400269 844.539429,629.474792 845.383789,627.924622 
	C847.454224,624.123352 851.546448,623.986694 853.649170,627.763733 
	C855.166565,630.489441 856.442078,633.540466 856.967773,636.593994 
	C859.055725,648.723145 860.793213,660.912354 862.689819,673.074768 
	C863.407654,677.678223 864.128967,682.283936 865.013855,686.856628 
	C865.267334,688.166443 866.098999,689.364258 866.665466,690.613464 
	C867.137268,690.552979 867.609070,690.492432 868.080811,690.431946 
	C868.199951,688.836670 868.540222,687.222168 868.403198,685.649170 
	C867.312561,673.121582 868.975952,661.075134 874.341370,649.613525 
	C875.668274,646.778870 877.122192,644.092590 880.803833,644.392883 
	C884.961914,644.732117 885.452209,648.111572 885.993225,651.267883 
	C886.642761,655.057922 887.175537,658.867920 887.758789,662.669312 
	C888.206482,662.760559 888.654175,662.851807 889.101868,662.943054 
	C889.908691,661.855652 890.717346,660.769531 891.521973,659.680481 
	C892.897705,657.818298 893.896484,655.271606 895.738525,654.261169 
	C898.128174,652.950378 901.475525,651.894714 903.855225,652.600830 
	C905.347595,653.043640 906.603516,656.937378 906.567505,659.261108 
	C906.512146,662.842773 905.258545,666.406128 904.511292,669.976868 
	C904.090393,671.987854 903.665649,673.998047 903.242676,676.008606 
	C903.644653,676.237305 904.046631,676.466003 904.448669,676.694702 
	C905.437012,675.769043 906.292969,674.599609 907.444641,673.974670 
	C909.199646,673.022095 911.516113,671.462830 912.935059,671.977722 
	C914.458801,672.530579 915.890076,675.076782 916.184082,676.939026 
	C916.927368,681.647400 917.010071,686.460083 917.416321,692.040527 
	C919.281494,691.356689 921.111328,690.930420 922.697388,690.059937 
	C928.238464,687.018860 933.662659,683.764709 939.205994,680.727844 
	C940.684143,679.918213 942.429016,679.595459 944.051514,679.049194 
	C944.309082,679.580750 944.566650,680.112305 944.824219,680.643921 
	C943.301331,681.700073 941.844543,682.871094 940.244141,683.792603 
	C933.319702,687.779358 926.328674,691.650818 919.425659,695.673645 
	C918.231079,696.369751 916.421204,697.639221 916.466675,698.566772 
	C916.741333,704.171997 915.201904,710.380188 920.819763,714.568237 
	C927.753235,719.737183 934.560303,725.081848 941.600281,730.100525 
	C955.965698,740.341370 966.147339,753.728455 972.442932,770.152649 
	C973.056885,771.754333 973.842834,773.290100 974.898743,775.632568 
	C976.103638,773.947876 976.941589,773.161804 977.315918,772.195984 
	C985.076965,752.168213 998.570618,737.126099 1016.726929,725.865356 
	C1021.621643,722.829651 1025.979126,718.800171 1030.168091,714.792908 
	C1033.858398,711.262634 1035.367798,698.835754 1033.002441,694.465149 
	C1032.426147,693.400330 1031.156250,692.604370 1030.047852,691.952881 
	C1025.741455,689.421936 1021.355591,687.026794 1017.037292,684.515747 
	C1015.990540,683.907166 1015.088684,683.049377 1014.466492,681.637756 
	C1021.396545,681.196045 1025.729248,687.484985 1032.420898,688.730957 
	C1032.870361,685.194214 1033.073730,681.916626 1033.738159,678.735229 
	C1034.909180,673.127502 1036.326904,672.456909 1041.527710,674.273865 
	C1042.524292,674.622009 1044.377686,674.860107 1044.664062,674.407410 
	C1045.253174,673.476807 1045.305176,672.005554 1045.123901,670.826599 
	C1044.618896,667.542786 1043.302856,664.273010 1043.423462,661.039368 
	C1043.516113,658.555542 1044.762329,654.688599 1046.472290,654.049316 
	C1048.650391,653.234924 1052.063843,654.592041 1054.467041,655.894470 
	C1056.183228,656.824524 1057.035278,659.271545 1058.427490,660.910339 
	C1059.105591,661.708496 1060.137329,662.206238 1061.008911,662.839966 
	C1061.685791,661.829407 1062.717651,660.899902 1062.970581,659.792480 
	C1063.635986,656.879883 1063.499878,653.706482 1064.577026,650.991638 
	C1065.370728,648.990967 1067.460693,646.348572 1069.178223,646.188171 
	C1070.974976,646.020447 1073.814453,648.037598 1074.820068,649.860046 
	C1080.610596,660.353943 1082.237305,671.819214 1081.799438,683.677185 
	C1081.727051,685.634460 1082.140869,687.609741 1082.329956,689.576721 
	C1082.912231,689.643494 1083.494629,689.710327 1084.076904,689.777161 
	C1084.677124,687.902893 1085.546631,686.068970 1085.834351,684.147888 
	C1087.880615,670.486023 1089.622192,656.775513 1091.877930,643.149597 
	C1092.628540,638.615601 1094.331665,634.167480 1096.166016,629.925049 
	C1096.778442,628.508423 1099.200073,627.007263 1100.710938,627.089172 
	C1102.225220,627.171265 1104.511475,628.935303 1104.920288,630.393555 
	C1105.984863,634.191284 1106.740967,638.235718 1106.665894,642.163452 
	C1106.417725,655.134216 1105.784058,668.098450 1105.219238,681.061768 
	C1105.023804,685.549500 1104.324585,690.026733 1104.317505,694.509460 
	C1104.248657,737.839600 1104.278076,781.169983 1104.279053,825.000305 
M1065.684082,712.038025 
	C1076.009399,705.185730 1079.404297,695.200745 1078.458008,683.356262 
	C1074.001221,692.846619 1069.502930,702.425110 1064.562622,712.160095 
	C1064.289673,712.648926 1064.016602,713.137695 1063.743530,713.626526 
	C1063.886597,713.696777 1064.029785,713.767090 1064.172852,713.837341 
	C1064.446045,713.222351 1064.719238,712.607361 1065.684082,712.038025 
M1071.294556,691.726074 
	C1074.796509,684.488770 1078.736328,677.335022 1076.722900,667.482788 
	C1074.267456,669.410522 1072.992310,670.177673 1072.009399,671.220276 
	C1064.358887,679.335327 1056.086914,686.981018 1049.307373,695.774353 
	C1038.384888,709.941406 1027.589233,723.833313 1011.814392,733.251282 
	C998.291077,741.325073 989.103821,753.683655 982.540466,767.855896 
	C978.299011,777.014587 975.963379,786.484375 977.814575,796.893799 
	C980.046326,809.443726 985.578918,820.529968 991.286499,831.640686 
	C992.062622,833.151672 992.477173,834.848389 993.059143,836.459106 
	C992.408630,836.709900 991.758179,836.960693 991.107666,837.211487 
	C984.555481,825.992004 978.900940,814.337463 975.121094,800.353271 
	C971.586487,815.030945 965.878723,827.252808 957.840332,838.427246 
	C957.445129,836.538940 957.842163,834.967407 958.515137,833.524536 
	C961.819458,826.440002 965.609741,819.552063 968.466003,812.294678 
	C975.165955,795.271423 974.505859,778.565247 965.567139,762.279602 
	C958.199219,748.855896 948.544983,737.642029 935.445923,729.609497 
	C924.186584,722.705261 915.465332,713.407715 907.399902,702.988037 
	C898.361511,691.311401 887.978638,680.673340 878.127747,669.630554 
	C877.087524,668.464539 875.690735,667.616577 873.264160,665.654663 
	C872.907654,668.938416 872.182434,671.021667 872.584229,672.858398 
	C873.466858,676.892639 874.332703,681.113037 876.238464,684.710205 
	C885.811462,702.779663 895.773621,720.642578 905.469177,738.647888 
	C908.144592,743.616394 910.494507,748.773132 912.723755,753.959595 
	C913.286133,755.268005 912.808044,757.023682 912.808044,759.446228 
	C911.618958,758.350525 911.163086,758.098816 910.953674,757.713135 
	C904.385803,745.616577 897.860046,733.497131 891.264893,721.415527 
	C890.645020,720.279907 889.695618,719.283569 888.756348,718.369385 
	C882.201721,711.988831 875.733276,705.511475 868.985962,699.339844 
	C864.409851,695.153931 862.209351,689.889526 861.186768,684.083191 
	C860.179688,678.364929 859.886841,672.522583 858.930603,666.793091 
	C857.099854,655.824158 855.125549,644.875854 852.955200,633.969849 
	C852.530090,631.833984 850.946899,629.928650 849.897888,627.916992 
	C849.387695,628.054626 848.877502,628.192200 848.367249,628.329834 
	C847.913269,630.188660 847.277161,632.023987 847.033813,633.909973 
	C844.905945,650.400452 846.559509,666.788940 848.081299,683.229370 
	C849.416626,697.655334 854.868652,709.829285 864.075989,721.024048 
	C880.574524,741.084045 896.493408,761.629333 912.338196,782.215332 
	C923.715698,796.997375 935.173218,811.879822 939.172363,830.750549 
	C940.860107,838.714600 942.245667,846.757324 943.366943,854.820068 
	C943.854065,858.322510 945.016052,859.497131 948.670532,859.454834 
	C966.164673,859.252380 983.664307,859.226990 1001.157593,859.461914 
	C1005.319580,859.517822 1006.378052,857.942078 1007.014404,854.166016 
	C1008.613525,844.677246 1010.294250,835.153015 1012.809875,825.878418 
	C1017.465881,808.712158 1028.865112,795.333496 1039.334961,781.595764 
	C1057.201782,758.152466 1075.647949,735.150391 1093.486450,711.685974 
	C1096.454834,707.781555 1098.429688,702.644165 1099.403442,697.783997 
	C1103.507324,677.302002 1105.481934,656.615540 1102.974121,635.727600 
	C1102.732056,633.711853 1101.783813,631.780884 1101.163452,629.810486 
	C1100.591919,629.862793 1100.020264,629.915039 1099.448730,629.967285 
	C1098.545898,632.022644 1097.189087,633.998718 1096.813965,636.146240 
	C1094.443726,649.719482 1091.944702,663.285950 1090.180786,676.944153 
	C1088.869873,687.093689 1086.867554,696.590149 1078.615967,703.640503 
	C1075.838745,706.013489 1073.484741,708.874939 1070.812622,711.380066 
	C1067.172485,714.792480 1062.396362,717.454712 1059.896973,721.534851 
	C1052.713013,733.262146 1046.435547,745.544312 1039.778076,757.595215 
	C1039.254883,758.542297 1038.546753,759.387207 1037.924683,760.279541 
	C1037.440186,760.083374 1036.955811,759.887207 1036.471436,759.691040 
	C1036.743286,758.190552 1036.754395,756.579163 1037.336426,755.210571 
	C1039.021729,751.247803 1040.734497,747.272278 1042.795776,743.497925 
	C1052.118042,726.427429 1061.564331,709.424683 1071.294556,691.726074 
M892.337830,761.565796 
	C878.033203,743.284912 863.728577,725.004028 849.283325,706.543335 
	C849.283325,758.462891 849.283325,810.250671 849.283325,862.419983 
	C862.812805,862.419983 875.953796,862.276428 889.088318,862.505066 
	C893.177307,862.576233 894.489807,861.429932 894.465698,857.212891 
	C894.296692,827.571411 894.409119,797.928406 894.315491,768.286255 
	C894.309082,766.244690 893.365234,764.206116 892.337830,761.565796 
M1055.658447,853.472717 
	C1055.660522,854.472534 1055.794067,855.492859 1055.642212,856.468689 
	C1054.886719,861.323486 1056.923828,862.812561 1061.716797,862.532654 
	C1068.525757,862.135071 1075.375122,862.428467 1082.207153,862.427612 
	C1088.316772,862.426819 1094.426392,862.427429 1100.707764,862.427429 
	C1100.707764,810.628296 1100.707764,759.506470 1100.707764,707.930725 
	C1099.851685,708.614258 1099.402344,708.850098 1099.120972,709.215271 
	C1085.402100,727.019958 1071.623047,744.779480 1058.094482,762.727783 
	C1056.555176,764.769897 1055.767334,767.874207 1055.751709,770.492737 
	C1055.588989,797.819946 1055.655396,825.148499 1055.658447,853.472717 
M1046.865112,664.611267 
	C1048.786133,671.708679 1050.707153,678.806152 1053.069580,687.534363 
	C1055.071533,684.950256 1056.319702,683.423340 1057.472656,681.827454 
	C1058.680664,680.154968 1061.111572,678.009460 1060.729614,676.776062 
	C1058.930664,670.965576 1056.668945,665.230896 1053.860718,659.839905 
	C1052.971924,658.133667 1049.878418,657.575867 1047.793823,656.492493 
	C1047.322876,658.615723 1046.834106,660.735413 1046.402344,662.866577 
	C1046.344482,663.152405 1046.574829,663.496582 1046.865112,664.611267 
M899.033447,677.595276 
	C900.563965,672.176331 902.357666,666.811218 903.482544,661.309326 
	C903.876892,659.380554 902.627563,657.115784 902.128845,655.004456 
	C900.039124,656.067139 896.942627,656.597595 896.047119,658.291565 
	C893.278381,663.528870 891.311340,669.195129 889.143127,674.737854 
	C888.896606,675.368164 889.084290,676.494629 889.520569,677.010559 
	C891.717896,679.609131 894.064514,682.081421 897.019714,685.323059 
	C897.902832,682.119202 898.415588,680.258972 899.033447,677.595276 
M907.164124,697.320923 
	C908.889465,699.601196 910.614807,701.881531 912.680237,704.611267 
	C913.141785,698.937622 913.783386,694.144287 913.851624,689.342773 
	C913.920044,684.528503 913.416443,679.706238 913.132202,674.289368 
	C904.802185,678.998047 902.046814,690.629578 907.164124,697.320923 
M1039.573975,695.539185 
	C1033.786011,697.844910 1038.277710,701.985352 1037.855591,705.400696 
	C1041.177856,701.071228 1045.765991,696.509705 1045.880859,691.838257 
	C1046.015747,686.356689 1043.833740,679.923401 1038.258057,675.915222 
	C1034.583008,683.391479 1035.228394,689.909058 1039.573975,695.539185 
M1068.702881,649.310059 
	C1064.575073,656.582703 1066.695557,664.403992 1065.685181,672.455200 
	C1069.890869,669.258057 1073.249023,666.705200 1077.023560,663.835815 
	C1076.532837,662.247375 1076.204346,660.064392 1075.217041,658.237488 
	C1073.508301,655.075256 1071.391235,652.133728 1068.702881,649.310059 
M874.017517,658.616638 
	C873.642883,660.159912 873.268188,661.703125 873.103638,662.380981 
	C877.094177,665.349426 880.416870,667.821045 884.262817,670.681946 
	C883.415894,662.452820 885.183533,654.481934 881.278931,647.380005 
	C880.633911,647.256531 879.988892,647.133057 879.343811,647.009583 
	C877.627991,650.623108 875.912170,654.236633 874.017517,658.616638 
M873.365967,686.121216 
	C872.788757,684.782959 872.211609,683.444702 871.388733,681.536682 
	C871.440674,697.373291 875.156860,704.874207 885.718018,710.921204 
	C881.686584,702.778687 877.717163,694.761475 873.365967,686.121216 
z"/>
<path fill="#7750C9" opacity="1.000000" stroke="none" 
	d="
M596.093872,930.526489 
	C594.827454,931.923218 593.080444,933.111633 592.370483,934.749573 
	C586.419006,948.479736 580.668579,962.296936 574.825134,976.074158 
	C574.148315,977.669983 573.273071,979.181763 572.489868,980.732544 
	C571.928284,980.816711 571.366760,980.900940 570.805237,980.985168 
	C562.888672,964.363342 554.972168,947.741516 547.055603,931.119690 
	C546.637085,931.184509 546.218506,931.249390 545.799927,931.314270 
	C545.799927,947.725525 545.799927,964.136719 545.799927,980.248779 
	C541.247620,982.056580 540.903809,979.951660 540.917725,976.958740 
	C540.988342,961.804016 540.976562,946.648621 540.920349,931.493774 
	C540.910522,928.841431 540.590759,926.186646 540.342834,923.539734 
	C540.051208,920.427002 538.427124,918.831482 535.169434,918.607422 
	C534.087036,918.532898 533.084106,917.304199 532.044800,916.603149 
	C533.206909,916.062256 534.366089,915.514893 535.534851,914.988892 
	C535.673462,914.926453 535.869141,915.006348 536.030029,914.976013 
	C545.459473,913.197144 550.916565,916.518555 554.601990,925.979370 
	C559.772034,939.251221 566.846436,951.781250 573.586609,965.614624 
	C576.270813,959.687622 578.628967,954.554199 580.925598,949.393433 
	C585.455627,939.214417 589.877930,928.986328 594.540222,918.868591 
	C595.246460,917.336060 597.003113,916.287598 598.842102,915.290771 
	C600.267822,915.422729 601.125244,915.279053 601.982727,915.135376 
	C603.094727,916.030640 605.029907,916.818054 605.164124,917.841492 
	C605.565430,920.902771 605.261780,924.056458 605.107971,927.196838 
	C604.957031,926.722717 604.994324,926.210510 604.878052,925.735840 
	C604.824219,925.516235 604.471069,925.369934 604.246582,925.191956 
	C604.239502,942.084106 604.239502,958.974670 604.239502,975.865234 
	C604.480469,975.866760 604.721436,975.868286 604.962402,975.869812 
	C604.962402,963.282166 604.962402,950.694519 604.962402,938.106873 
	C605.081543,951.684204 605.224243,965.261536 605.252502,978.839050 
	C605.253967,979.538635 604.276245,980.240295 603.067017,980.648682 
	C600.778564,980.081482 599.177429,979.806580 596.999634,979.432678 
	C596.999634,962.592529 596.999634,945.854736 596.999634,929.116943 
	C596.757935,929.116760 596.516296,929.116577 596.274597,929.116455 
	C596.214355,929.586426 596.154114,930.056458 596.093872,930.526489 
M604.538269,917.901672 
	C604.435486,918.583252 604.332703,919.264893 604.229858,919.946472 
	C604.445557,919.958069 604.661255,919.969604 604.876953,919.981140 
	C604.876953,919.412170 604.876953,918.843140 604.538269,917.901672 
z"/>
<path fill="#7A54C7" opacity="1.000000" stroke="none" 
	d="
M1189.929077,914.889099 
	C1208.327881,909.307983 1225.228882,916.022766 1231.638672,931.190247 
	C1240.026733,951.038208 1232.512573,970.098816 1211.872925,981.329346 
	C1215.911621,989.689514 1226.479736,995.171021 1235.082397,993.528076 
	C1236.057739,993.341858 1237.213501,994.101868 1238.285645,994.423035 
	C1237.585083,995.165710 1237.020264,996.175964 1236.163452,996.610779 
	C1224.280396,1002.642944 1219.370850,1001.900085 1209.796753,992.749146 
	C1209.194702,992.173645 1208.535522,991.636536 1208.032593,990.981812 
	C1203.830200,985.511719 1198.571655,982.982910 1191.466064,981.833984 
	C1174.108032,979.027161 1164.405029,962.884460 1167.434082,943.514160 
	C1169.544189,930.021057 1176.476807,920.087036 1189.929077,914.889099 
M1178.725586,960.505493 
	C1180.506592,963.854004 1181.797363,967.604065 1184.153931,970.481079 
	C1194.064697,982.580505 1213.164062,981.465637 1220.791992,968.578857 
	C1227.483643,957.273865 1226.461670,937.197876 1218.493408,926.834167 
	C1212.904419,919.565002 1205.391479,916.010864 1196.248047,917.217285 
	C1187.356689,918.390503 1181.571045,923.756897 1178.741455,932.244202 
	C1175.699219,941.368958 1176.069702,950.548584 1178.725586,960.505493 
z"/>
<path fill="#7A54C7" opacity="1.000000" stroke="none" 
	d="
M804.193787,919.804810 
	C824.094849,939.826599 816.385742,974.271729 790.422974,981.551941 
	C777.615479,985.143250 765.227417,983.369141 756.044922,972.907349 
	C746.233643,961.729065 745.444702,948.264954 750.389526,934.858154 
	C755.149353,921.952942 764.985046,914.469238 778.897217,913.108887 
	C787.957581,912.223022 796.465637,913.996704 804.193787,919.804810 
M764.085938,969.333557 
	C774.934082,982.368713 793.787598,982.326843 801.155579,968.691833 
	C808.705261,954.720398 807.910950,940.353943 799.236877,927.065308 
	C794.130615,919.242554 786.074585,915.945496 776.710754,917.220093 
	C767.492554,918.474915 761.726746,924.312744 759.175354,932.919617 
	C755.476501,945.397522 756.137390,957.557068 764.085938,969.333557 
z"/>
<path fill="#7A54C7" opacity="1.000000" stroke="none" 
	d="
M1393.001465,919.329468 
	C1381.715210,919.301025 1381.715210,919.301025 1381.726074,930.180786 
	C1381.738281,942.475891 1381.737183,942.515137 1394.124756,942.876282 
	C1396.770752,942.953430 1399.437988,942.728577 1402.078003,942.466064 
	C1404.807861,942.194641 1406.813110,941.133484 1406.809937,937.824280 
	C1406.809082,936.988159 1407.886108,936.151001 1408.467773,935.314331 
	C1409.045654,936.141235 1410.088989,936.949646 1410.122925,937.798279 
	C1410.295288,942.123108 1410.293579,946.461487 1410.137207,950.787354 
	C1410.105713,951.662476 1409.144287,952.503967 1408.611572,953.360962 
	C1407.974365,952.595825 1406.866089,951.878357 1406.783203,951.057373 
	C1406.449829,947.759583 1404.454224,946.994141 1401.609863,947.019348 
	C1396.278931,947.066650 1390.944092,947.144470 1385.617554,946.984192 
	C1382.813110,946.899780 1381.672363,947.994934 1381.719482,950.727600 
	C1381.836914,957.555176 1381.892456,964.383911 1381.953003,971.212341 
	C1381.985107,974.837097 1383.468628,976.788452 1387.409302,976.567871 
	C1392.727539,976.270325 1398.140259,976.721558 1403.360962,975.895203 
	C1408.054565,975.152344 1412.543945,973.118652 1417.368042,971.576050 
	C1419.118408,975.005737 1416.064087,981.001831 1411.204956,981.014099 
	C1398.408447,981.046448 1385.611938,981.025024 1372.134888,981.025024 
	C1372.134888,978.823120 1372.139771,977.051941 1372.134155,975.280823 
	C1372.081665,958.788452 1372.019653,942.296082 1371.979370,925.803711 
	C1371.969238,921.671753 1371.750977,917.883667 1365.860840,918.629456 
	C1365.100220,918.725769 1364.138672,917.235657 1363.270264,916.480469 
	C1364.154663,915.974854 1365.036743,915.033020 1365.923706,915.028198 
	C1382.225586,914.939758 1398.528076,914.963440 1415.669678,914.963440 
	C1415.026733,918.628845 1414.468872,921.808594 1413.748657,925.914368 
	C1407.918091,917.887085 1400.295654,920.074280 1393.001465,919.329468 
z"/>
<path fill="#7A54C7" opacity="1.000000" stroke="none" 
	d="
M897.953796,969.011169 
	C897.644592,968.907227 897.395752,968.722107 897.070435,967.911133 
	C895.612305,965.926086 894.291077,964.485779 892.969849,963.045471 
	C883.112061,951.425049 873.254333,939.804626 863.396545,928.184204 
	C862.889282,928.312378 862.382080,928.440613 861.874817,928.568848 
	C861.874817,937.119751 861.874817,945.670593 861.874817,954.221497 
	C861.874817,962.869080 861.874817,971.516602 861.874817,980.120850 
	C857.809448,982.219299 857.099304,980.362305 857.115967,976.958191 
	C857.190186,961.792847 857.159973,946.627014 857.143127,931.461304 
	C857.140564,929.130127 857.135193,926.786926 856.910278,924.470764 
	C856.591980,921.193848 855.363770,918.773071 851.415710,918.652954 
	C850.243530,918.617249 849.107117,917.406799 847.228821,916.311584 
	C857.578674,912.904785 863.887634,914.782593 869.561157,921.761963 
	C879.958557,934.552795 890.493896,947.231628 900.992371,959.940125 
	C901.930054,961.075195 903.018433,962.085754 904.036865,963.154053 
	C904.582153,963.110046 905.127380,963.066101 905.672668,963.022095 
	C905.672668,947.584656 905.672668,932.147278 905.837524,916.805359 
	C906.538574,936.674072 904.221313,956.569763 909.105957,976.417175 
	C907.337585,976.717896 906.072266,976.933044 904.807007,977.148193 
	C904.807007,977.148193 904.885132,977.092834 904.817139,976.839844 
	C904.149353,976.062805 903.549622,975.538696 902.949829,975.014587 
	C902.949829,975.014587 903.003296,975.005249 902.965454,974.712524 
	C902.528870,973.991455 902.130127,973.563110 901.731445,973.134766 
	C901.731445,973.134705 901.857666,973.095032 901.783325,972.891235 
	C901.405273,972.492554 901.101562,972.297668 900.797852,972.102722 
	C900.797852,972.102722 900.893127,972.142334 900.884155,971.819702 
	C899.901428,970.668457 898.927612,969.839783 897.953796,969.011169 
z"/>
<path fill="#794FCE" opacity="1.000000" stroke="none" 
	d="
M979.236450,636.189697 
	C984.539368,636.096558 989.442749,636.096558 994.346130,636.096558 
	C994.513794,636.571228 994.681458,637.045837 994.849121,637.520508 
	C984.488770,642.232300 978.549561,650.065002 978.335754,661.315186 
	C978.120667,672.629272 984.047424,680.424377 994.871094,685.925049 
	C985.756165,689.232727 978.007019,688.246094 970.940186,683.465027 
	C962.231323,677.573059 957.999268,669.071533 959.383850,658.561157 
	C960.900208,647.050415 967.643738,639.598328 979.236450,636.189697 
z"/>
<path fill="#7750C9" opacity="1.000000" stroke="none" 
	d="
M1037.080811,979.920959 
	C1036.969238,967.114075 1036.858032,954.307129 1036.746216,941.500244 
	C1036.701172,936.338806 1036.627808,931.177490 1036.616821,926.015991 
	C1036.607666,921.711182 1036.310059,917.839355 1030.234985,918.605957 
	C1029.407104,918.710449 1028.365723,917.121887 1027.423096,916.317200 
	C1027.662231,915.953125 1027.901489,915.589050 1028.140625,915.224976 
	C1045.202881,915.224976 1062.265259,915.224976 1080.164795,915.224976 
	C1079.617798,918.651489 1079.112061,921.819702 1078.811035,923.705872 
	C1074.297729,922.180603 1070.721191,920.327454 1066.970947,919.855957 
	C1061.385864,919.153809 1055.676880,919.461853 1050.023071,919.270569 
	C1047.265869,919.177185 1046.139038,920.385132 1046.192627,923.143860 
	C1046.296021,928.470093 1046.038330,933.810852 1046.357544,939.119873 
	C1046.433472,940.383057 1048.126587,942.515259 1049.191650,942.589722 
	C1054.490112,942.959900 1059.833862,942.938782 1065.148682,942.729187 
	C1068.586060,942.593628 1071.926270,941.876831 1071.410034,937.038513 
	C1071.352173,936.496338 1072.280396,935.848938 1073.464111,934.344055 
	C1074.090576,936.463989 1074.736084,937.704590 1074.778320,938.965515 
	C1074.912476,942.957092 1074.895874,946.958862 1074.751221,950.950012 
	C1074.723755,951.710144 1073.844360,952.439392 1073.357910,953.182922 
	C1072.649048,952.494568 1071.307373,951.779541 1071.335083,951.122375 
	C1071.503906,947.130676 1069.003662,946.974121 1066.095215,946.999756 
	C1059.627319,947.056763 1053.158447,947.017456 1046.138428,947.017456 
	C1046.138428,957.006104 1046.138428,966.469177 1046.058594,975.853394 
	C1045.978882,966.577271 1045.978882,957.380066 1045.978882,948.182861 
	C1045.648926,948.184753 1045.318970,948.186646 1044.989014,948.188538 
	C1044.989014,958.788940 1044.989014,969.389404 1044.554077,979.993530 
	C1042.080811,979.999695 1040.042480,980.002197 1038.002075,980.002197 
	C1038.000000,979.999817 1037.993896,979.993347 1037.997314,979.525269 
	C1038.000854,962.784973 1038.000854,946.512695 1038.000854,930.240479 
	C1037.703369,930.242188 1037.406006,930.243896 1037.108521,930.245605 
	C1037.108521,946.796936 1037.108521,963.348328 1037.100830,979.907349 
	C1037.093262,979.915039 1037.080811,979.920959 1037.080811,979.920959 
z"/>
<path fill="#7A5FB4" opacity="1.000000" stroke="none" 
	d="
M675.833252,982.852539 
	C656.116516,979.493164 646.076233,966.720947 647.188171,946.900085 
	C648.257629,927.838196 661.581665,913.935669 679.831970,912.968811 
	C691.658936,912.342163 702.466431,915.315308 709.056519,925.662231 
	C716.827698,937.863708 717.254150,951.278503 710.768738,964.265686 
	C703.747925,978.324951 691.669739,983.925781 675.833252,982.852539 
M698.976013,972.603760 
	C699.904785,972.975891 701.464294,973.879150 701.666260,973.639282 
	C704.109009,970.738708 706.838440,967.920166 708.551758,964.595215 
	C713.098694,955.771179 714.190552,946.221069 711.833496,936.650391 
	C709.719910,928.068054 705.079407,921.001953 696.298767,917.629639 
	C694.045349,916.764282 691.697327,916.084595 689.840515,919.209412 
	C676.911438,914.832947 669.518677,916.833984 661.078003,926.307617 
	C661.322632,925.059998 661.567200,923.812378 661.965454,921.781006 
	C647.241089,931.345215 646.028564,953.931763 652.470642,966.373596 
	C658.131592,977.306519 673.981628,984.276978 679.979065,980.975525 
	C677.116699,979.439453 673.686584,977.598633 670.994934,975.884827 
	C681.227478,981.059875 690.506104,979.554382 698.976013,972.603760 
M688.517578,916.414062 
	C688.517578,916.414062 688.580627,916.519287 688.517578,916.414062 
z"/>
<path fill="#794FCE" opacity="1.000000" stroke="none" 
	d="
M1285.100586,960.930664 
	C1285.318604,961.708679 1285.536743,962.486633 1285.520264,963.943237 
	C1286.605957,967.377075 1287.926147,970.132263 1289.246338,972.887451 
	C1289.246216,972.887451 1289.118652,972.903320 1289.197998,973.109741 
	C1289.559570,973.539734 1289.841797,973.763367 1290.123901,973.986938 
	C1292.251709,975.306946 1294.379639,976.626953 1297.024292,978.254150 
	C1299.899414,979.101868 1302.257690,979.642395 1304.615967,980.182922 
	C1304.425903,980.925354 1304.235840,981.667725 1304.045776,982.410156 
	C1297.281006,980.683289 1290.516357,978.956421 1283.751709,977.229492 
	C1283.751709,977.229492 1283.830688,977.143433 1283.746094,976.901245 
	C1283.100708,976.441223 1282.540161,976.223389 1281.979492,976.005554 
	C1281.979492,976.005554 1281.999023,975.995361 1281.897705,975.787964 
	C1281.608398,975.306396 1281.358032,975.112366 1281.045532,974.998474 
	C1281.045532,974.998474 1280.857544,974.748474 1280.897339,974.173584 
	C1279.956421,967.980774 1278.456543,962.393921 1278.118774,956.737671 
	C1277.633545,948.608398 1278.470703,940.389587 1277.806274,932.285828 
	C1277.440308,927.823303 1278.905151,922.602722 1274.729004,918.900085 
	C1274.729004,918.900085 1274.357788,918.833679 1274.144043,918.397461 
	C1275.648071,913.933716 1279.071167,916.686218 1281.643555,916.265381 
	C1282.204224,916.173584 1283.870239,918.734558 1283.891235,920.091309 
	C1284.075317,932.018372 1283.958984,943.949707 1284.053345,955.878845 
	C1284.066772,957.565430 1284.735352,959.246826 1285.100586,960.930664 
z"/>
<path fill="#7657B9" opacity="1.000000" stroke="none" 
	d="
M1283.880859,977.539062 
	C1290.516357,978.956421 1297.281006,980.683289 1304.045776,982.410156 
	C1304.235840,981.667725 1304.425903,980.925354 1304.615967,980.182922 
	C1302.257690,979.642395 1299.899414,979.101868 1297.282715,978.290894 
	C1301.603760,977.753906 1306.213745,977.730164 1310.754028,977.155579 
	C1315.753418,976.522766 1319.603027,973.659729 1320.995728,968.817261 
	C1322.447266,963.771179 1323.668945,958.491272 1323.835571,953.276733 
	C1324.237793,940.688721 1323.966064,928.079224 1323.966064,915.554199 
	C1327.282471,914.381409 1328.646362,915.060242 1328.620850,918.425598 
	C1328.520264,931.723267 1328.740601,945.024719 1328.525879,958.319641 
	C1328.365723,968.237854 1324.231812,976.356750 1314.864990,980.283997 
	C1304.414307,984.665771 1293.828247,984.547363 1283.880859,977.539062 
z"/>
<path fill="#794FCE" opacity="1.000000" stroke="none" 
	d="
M975.965637,913.393921 
	C976.123901,913.296692 976.282227,913.199402 976.777222,913.505493 
	C978.035706,916.607544 978.957397,919.306274 979.879089,922.004944 
	C979.879089,922.004944 980.011230,922.411865 980.017334,923.045166 
	C980.032654,924.505188 979.827881,925.405457 980.082886,926.147705 
	C984.341125,938.540222 988.633728,950.921143 993.019287,963.268921 
	C993.272888,963.982971 994.386475,964.391602 995.099854,964.942383 
	C995.099854,964.942383 995.034058,965.011475 995.021240,965.392090 
	C995.835022,970.280151 996.661621,974.787476 997.509216,979.409180 
	C994.322632,980.711670 992.635925,979.691223 991.613403,976.448303 
	C989.973999,971.249329 988.090637,966.118530 986.076111,961.052002 
	C985.473938,959.537720 984.089966,958.334290 983.064148,956.988464 
	C983.064148,956.988464 982.989868,956.954224 982.952271,956.581421 
	C982.258789,954.763367 981.603027,953.317993 980.923157,951.504578 
	C977.970886,942.875183 975.042664,934.613892 971.976562,926.001343 
	C972.095825,923.693787 972.046021,921.629333 972.688110,919.808838 
	C973.479614,917.564392 974.847107,915.523071 975.965637,913.393921 
z"/>
<path fill="#7657B9" opacity="1.000000" stroke="none" 
	d="
M980.947205,951.872681 
	C981.603027,953.317993 982.258789,954.763367 982.972046,956.545654 
	C976.376160,956.769653 969.713196,956.429382 963.076660,956.711060 
	C961.510071,956.777527 959.382202,958.624390 958.630310,960.189209 
	C955.915405,965.839783 953.336609,971.607788 951.387573,977.554688 
	C950.232056,981.080261 948.541626,981.544312 945.238770,980.481018 
	C952.620239,963.060730 959.946899,945.766846 967.276306,928.474060 
	C968.900024,924.643127 970.412537,920.757690 972.225159,917.017944 
	C972.881592,915.663757 974.266479,914.662720 975.642334,913.447266 
	C974.847107,915.523071 973.479614,917.564392 972.688110,919.808838 
	C972.046021,921.629333 972.095825,923.693787 971.937988,926.348206 
	C968.666138,935.183594 965.294983,943.320801 961.752075,951.872681 
	C968.728027,951.872681 974.837646,951.872681 980.947205,951.872681 
z"/>
<path fill="#794FCE" opacity="1.000000" stroke="none" 
	d="
M1117.597168,919.161926 
	C1117.597168,919.161926 1117.228516,919.047668 1117.128418,918.525940 
	C1118.974731,917.390808 1121.213257,915.899414 1122.781860,916.421204 
	C1124.230103,916.903015 1125.848877,919.533447 1125.869385,921.235840 
	C1126.087769,939.396118 1126.004150,957.559998 1125.995239,975.722900 
	C1125.994873,976.386719 1126.163086,977.286072 1125.810791,977.666931 
	C1124.998413,978.545166 1123.902222,979.755066 1122.942993,979.735901 
	C1121.988892,979.716797 1120.662598,978.535156 1120.227905,977.543945 
	C1119.731934,976.412659 1120.005981,974.928467 1120.005127,973.597656 
	C1119.994751,957.101074 1120.063354,940.603699 1119.888550,924.108948 
	C1119.871094,922.452087 1118.395752,920.810608 1117.597168,919.161926 
z"/>
<path fill="#7657B9" opacity="1.000000" stroke="none" 
	d="
M1117.706055,919.608948 
	C1118.395752,920.810608 1119.871094,922.452087 1119.888550,924.108948 
	C1120.063354,940.603699 1119.994751,957.101074 1120.005127,973.597656 
	C1120.005981,974.928467 1119.731934,976.412659 1120.227905,977.543945 
	C1120.662598,978.535156 1121.988892,979.716797 1122.942993,979.735901 
	C1123.902222,979.755066 1124.998413,978.545166 1125.810791,977.666931 
	C1126.163086,977.286072 1125.994873,976.386719 1125.995239,975.722900 
	C1126.004150,957.559998 1126.087769,939.396118 1125.869385,921.235840 
	C1125.848877,919.533447 1124.230103,916.903015 1122.781860,916.421204 
	C1121.213257,915.899414 1118.974731,917.390808 1116.998047,918.383606 
	C1114.460205,918.037537 1110.556030,920.544495 1109.324463,915.327820 
	C1115.695435,915.327820 1121.562988,915.327820 1127.732910,915.327820 
	C1127.732910,937.123657 1127.732910,958.806885 1127.732910,980.753906 
	C1124.786621,980.753906 1122.027466,980.753906 1117.814941,980.753906 
	C1117.814941,960.478943 1117.814941,940.267456 1117.706055,919.608948 
z"/>
<path fill="#7657B9" opacity="1.000000" stroke="none" 
	d="
M904.914185,977.468018 
	C906.072266,976.933044 907.337585,976.717896 909.105957,976.417175 
	C904.221313,956.569763 906.538574,936.674072 905.988892,916.428955 
	C907.075012,915.555908 908.174805,915.154724 909.753174,914.578918 
	C909.753174,937.277039 909.753174,959.265137 909.753174,981.253296 
	C909.301086,981.620544 908.849060,981.987854 908.396973,982.355103 
	C907.271790,980.832703 906.146545,979.310303 904.914185,977.468018 
z"/>
<path fill="#7A5FB4" opacity="1.000000" stroke="none" 
	d="
M919.507935,647.130127 
	C925.370728,648.405029 930.884094,649.551453 936.331543,650.953796 
	C937.702820,651.306824 938.863220,652.479065 940.120544,653.274841 
	C938.619934,653.716553 937.038330,654.712463 935.632324,654.506897 
	C928.428528,653.453857 921.261353,652.137146 914.102051,650.802246 
	C912.489929,650.501648 910.882507,649.909790 909.426880,649.155029 
	C908.756592,648.807434 908.457642,647.743713 907.990356,647.004761 
	C908.653198,646.629395 909.348267,645.886230 909.973328,645.941101 
	C913.037109,646.209656 916.082275,646.690613 919.507935,647.130127 
z"/>
<path fill="#7A5FB4" opacity="1.000000" stroke="none" 
	d="
M978.857971,612.723633 
	C978.459106,615.549683 978.061768,617.944031 977.484253,621.424744 
	C973.138489,615.556641 972.563049,593.037231 976.746521,588.696899 
	C977.505615,597.173950 978.182556,604.732971 978.857971,612.723633 
z"/>
<path fill="#7A5FB4" opacity="1.000000" stroke="none" 
	d="
M950.490112,646.195129 
	C949.376038,646.284363 948.309631,646.429199 947.562317,646.007935 
	C940.552429,642.057068 933.597107,638.009338 926.625977,633.989563 
	C926.668030,633.489014 926.710144,632.988525 926.752197,632.487976 
	C928.280640,632.487976 930.082703,631.956055 931.291260,632.577881 
	C937.281982,635.659729 943.171326,638.953918 948.950562,642.416687 
	C949.900940,642.986267 950.125671,644.767151 950.490112,646.195129 
z"/>
<path fill="#7A5FB4" opacity="1.000000" stroke="none" 
	d="
M1002.753418,627.207703 
	C1008.879456,619.282593 1014.866760,611.647522 1020.854065,604.012451 
	C1021.371521,604.272583 1021.889038,604.532776 1022.406555,604.792908 
	C1022.044800,606.098633 1022.025330,607.663086 1021.265564,608.667786 
	C1016.473755,615.004578 1011.578918,621.266968 1006.562012,627.426819 
	C1005.610474,628.595093 1003.974548,631.364197 1002.753418,627.207703 
z"/>
<path fill="#7A5FB4" opacity="1.000000" stroke="none" 
	d="
M935.264160,605.463501 
	C941.724182,614.062683 949.921387,620.993591 954.679321,630.385803 
	C954.104370,630.849487 953.529419,631.313110 952.954468,631.776794 
	C950.379333,628.759155 947.758423,625.779175 945.239807,622.715088 
	C941.561890,618.240662 937.880981,613.764099 934.374756,609.156433 
	C933.486877,607.989685 931.115967,605.974731 935.264160,605.463501 
z"/>
<path fill="#7A5FB4" opacity="1.000000" stroke="none" 
	d="
M941.843994,703.562256 
	C946.234619,697.388733 950.577515,691.493347 955.065735,685.710815 
	C955.474304,685.184387 956.815186,685.381653 957.723083,685.242798 
	C957.805542,686.156494 958.314758,687.395203 957.904541,687.933716 
	C953.628967,693.547424 949.245178,699.081604 944.731567,704.504700 
	C944.440430,704.854614 942.831604,704.107788 941.843994,703.562256 
z"/>
<path fill="#7A5FB4" opacity="1.000000" stroke="none" 
	d="
M922.006348,672.239136 
	C922.743591,671.044861 923.493469,669.482239 924.540649,669.247925 
	C931.415466,667.709229 938.344177,666.398865 945.285889,665.189331 
	C946.110413,665.045654 947.119995,665.963989 948.043823,666.390137 
	C947.414062,666.988220 946.860901,667.985596 946.142944,668.123291 
	C938.162109,669.653870 930.155823,671.051514 922.006348,672.239136 
z"/>
<path fill="#7A5FB4" opacity="1.000000" stroke="none" 
	d="
M990.945557,702.952393 
	C991.093384,701.765259 991.324829,700.907532 991.556274,700.049744 
	C992.406006,700.648499 993.690613,701.063232 994.034668,701.876038 
	C996.222046,707.044556 998.210266,712.297607 1000.246582,717.529663 
	C1001.399536,720.491943 1002.519165,723.467163 1002.634216,726.892822 
	C996.808533,719.968384 994.575806,711.294983 990.945557,702.952393 
z"/>
<path fill="#7A5FB4" opacity="1.000000" stroke="none" 
	d="
M961.985291,699.654419 
	C963.017761,699.910767 964.692810,700.801758 964.599670,701.063538 
	C961.544556,709.649292 958.328735,718.178040 955.087585,726.696533 
	C954.952576,727.051514 954.346252,727.227234 952.506531,728.460327 
	C953.668823,717.426880 959.063293,709.095093 961.985291,699.654419 
z"/>
<path fill="#7657B9" opacity="1.000000" stroke="none" 
	d="
M1285.233154,960.487000 
	C1284.735352,959.246826 1284.066772,957.565430 1284.053345,955.878845 
	C1283.958984,943.949707 1284.075317,932.018372 1283.891235,920.091309 
	C1283.870239,918.734558 1282.204224,916.173584 1281.643555,916.265381 
	C1279.071167,916.686218 1275.648071,913.933716 1274.001465,918.274109 
	C1271.694946,918.040100 1268.426270,920.601562 1267.046631,916.573120 
	C1269.373169,916.041870 1271.678467,915.216980 1274.031006,915.047607 
	C1277.638062,914.787842 1281.277710,914.979309 1285.365845,914.979309 
	C1285.365845,930.264648 1285.365845,945.153992 1285.233154,960.487000 
z"/>
<path fill="#7A5FB4" opacity="1.000000" stroke="none" 
	d="
M1026.188354,652.871277 
	C1023.456482,653.210999 1021.137939,653.460510 1018.819397,653.710022 
	C1018.721558,652.904907 1018.623657,652.099731 1018.525818,651.294617 
	C1028.084839,649.289307 1037.584595,646.957764 1047.305908,645.844849 
	C1047.494385,646.744019 1047.682861,647.643250 1047.871338,648.542419 
	C1040.781494,649.955322 1033.691528,651.368164 1026.188354,652.871277 
z"/>
<path fill="#7A5FB4" opacity="1.000000" stroke="none" 
	d="
M1014.280273,662.948120 
	C1021.203918,663.940674 1027.737061,664.894287 1034.270264,665.847839 
	C1034.128052,666.653259 1033.985962,667.458740 1033.843872,668.264160 
	C1025.778564,667.739685 1017.654724,667.632568 1009.891663,664.950745 
	C1009.915161,664.362976 1009.938660,663.775269 1009.962219,663.187561 
	C1011.271423,663.094727 1012.580566,663.001953 1014.280273,662.948120 
z"/>
<path fill="#7A5FB4" opacity="1.000000" stroke="none" 
	d="
M960.847046,621.450439 
	C959.160217,616.533325 957.577087,611.982605 955.828674,606.957092 
	C959.977966,608.105530 967.918091,628.017944 966.220459,633.469849 
	C964.170410,628.936707 962.560547,625.376770 960.847046,621.450439 
z"/>
<path fill="#7A5FB4" opacity="1.000000" stroke="none" 
	d="
M999.614136,685.939941 
	C1000.560791,685.427551 1002.047913,684.716003 1002.446655,685.108887 
	C1006.802307,689.400818 1011.051514,693.807800 1015.161194,698.336243 
	C1015.902771,699.153442 1015.880798,700.663574 1016.211365,701.853760 
	C1015.723633,702.137268 1015.235962,702.420837 1014.748230,702.704407 
	C1009.715210,697.220764 1004.682251,691.737183 999.614136,685.939941 
z"/>
<path fill="#7657B9" opacity="1.000000" stroke="none" 
	d="
M1274.817383,919.276123 
	C1278.905151,922.602722 1277.440308,927.823303 1277.806274,932.285828 
	C1278.470703,940.389587 1277.633545,948.608398 1278.118774,956.737671 
	C1278.456543,962.393921 1279.956421,967.980774 1280.903076,974.017212 
	C1279.291260,969.520630 1276.715332,964.679382 1276.345337,959.674927 
	C1275.591553,949.481506 1276.104736,939.198792 1275.926392,928.955811 
	C1275.872192,925.849609 1275.261597,922.753113 1274.817383,919.276123 
z"/>
<path fill="#7A5FB4" opacity="1.000000" stroke="none" 
	d="
M990.856934,609.836792 
	C991.925171,608.675171 992.721619,607.740784 993.518066,606.806335 
	C993.801453,606.906677 994.084900,607.007019 994.368286,607.107361 
	C992.197876,614.552795 990.027405,621.998230 987.629517,630.223999 
	C984.996155,626.002930 985.164673,625.108948 990.856934,609.836792 
z"/>
<path fill="#7A5FB4" opacity="1.000000" stroke="none" 
	d="
M980.964722,712.024902 
	C980.919495,713.813782 980.919495,715.238037 980.919495,716.899658 
	C977.714844,714.946716 975.878479,698.613403 978.399597,691.529236 
	C981.181946,698.854980 980.011169,705.440613 980.964722,712.024902 
z"/>
<path fill="#7657B9" opacity="1.000000" stroke="none" 
	d="
M983.107544,957.362549 
	C984.089966,958.334290 985.473938,959.537720 986.076111,961.052002 
	C988.090637,966.118530 989.973999,971.249329 991.613403,976.448303 
	C992.635925,979.691223 994.322632,980.711670 997.509216,979.409180 
	C996.661621,974.787476 995.835022,970.280151 995.034790,965.346680 
	C997.085938,970.016846 999.110718,975.113098 1001.157654,980.265259 
	C992.363770,982.186340 991.759399,981.882141 988.949097,974.093567 
	C986.985718,968.652344 985.081543,963.189636 983.107544,957.362549 
z"/>
<path fill="#7A5FB4" opacity="1.000000" stroke="none" 
	d="
M1016.269470,636.229858 
	C1012.182678,638.861328 1008.361938,641.245789 1004.541138,643.630249 
	C1004.110229,642.917664 1003.679321,642.205017 1003.248413,641.492432 
	C1009.590942,637.326660 1015.933411,633.160950 1022.275940,628.995178 
	C1022.708435,629.567749 1023.140991,630.140320 1023.573486,630.712952 
	C1021.227478,632.469604 1018.881470,634.226196 1016.269470,636.229858 
z"/>
<path fill="#7657B9" opacity="1.000000" stroke="none" 
	d="
M995.055786,964.562439 
	C994.386475,964.391602 993.272888,963.982971 993.019287,963.268921 
	C988.633728,950.921143 984.341125,938.540222 980.082886,926.147705 
	C979.827881,925.405457 980.032654,924.505188 980.043030,923.257568 
	C982.455627,929.088806 984.947571,935.305481 987.216187,941.602478 
	C989.914795,949.093079 992.421753,956.652771 995.055786,964.562439 
z"/>
<path fill="#7657B9" opacity="1.000000" stroke="none" 
	d="
M596.043091,931.035522 
	C596.154114,930.056458 596.214355,929.586426 596.274597,929.116455 
	C596.516296,929.116577 596.757935,929.116760 596.999634,929.116943 
	C596.999634,945.854736 596.999634,962.592529 596.999634,979.432678 
	C599.177429,979.806580 600.778564,980.081482 602.676208,980.607422 
	C600.844849,980.858459 598.716980,980.858459 595.992371,980.858459 
	C595.992371,964.291382 595.992371,947.917969 596.043091,931.035522 
z"/>
<path fill="#7657B9" opacity="1.000000" stroke="none" 
	d="
M605.033936,937.646362 
	C604.962402,950.694519 604.962402,963.282166 604.962402,975.869812 
	C604.721436,975.868286 604.480469,975.866760 604.239502,975.865234 
	C604.239502,958.974670 604.239502,942.084106 604.246582,925.191956 
	C604.471069,925.369934 604.824219,925.516235 604.878052,925.735840 
	C604.994324,926.210510 604.957031,926.722717 604.971924,927.559326 
	C605.009277,930.994629 605.057312,934.090271 605.033936,937.646362 
z"/>
<path fill="#7657B9" opacity="1.000000" stroke="none" 
	d="
M1044.989014,979.989868 
	C1044.989014,969.389404 1044.989014,958.788940 1044.989014,948.188538 
	C1045.318970,948.186646 1045.648926,948.184753 1045.978882,948.182861 
	C1045.978882,957.380066 1045.978882,966.577271 1045.946167,976.208862 
	C1045.953369,977.496643 1045.993164,978.349915 1045.744385,979.618042 
	C1045.455933,980.032837 1045.030029,980.029968 1045.020264,980.020142 
	C1045.010376,980.010315 1044.989014,979.989868 1044.989014,979.989868 
z"/>
<path fill="#7657B9" opacity="1.000000" stroke="none" 
	d="
M979.931824,921.572754 
	C978.957397,919.306274 978.035706,916.607544 977.055176,913.524902 
	C978.217896,913.015320 979.439331,912.889771 980.483704,912.782349 
	C980.300842,915.843506 980.142700,918.492004 979.931824,921.572754 
z"/>
<path fill="#7657B9" opacity="1.000000" stroke="none" 
	d="
M1289.178345,972.523926 
	C1287.926147,970.132263 1286.605957,967.377075 1285.490112,964.351074 
	C1286.833008,966.773682 1287.971680,969.467041 1289.178345,972.523926 
z"/>
<path fill="#7657B9" opacity="1.000000" stroke="none" 
	d="
M893.054565,963.360474 
	C894.291077,964.485779 895.612305,965.926086 896.962219,967.701782 
	C895.706970,966.583313 894.423096,965.129456 893.054565,963.360474 
z"/>
<path fill="#7657B9" opacity="1.000000" stroke="none" 
	d="
M898.033447,969.320312 
	C898.927612,969.839783 899.901428,970.668457 900.849976,971.858337 
	C899.920837,971.356201 899.017029,970.492859 898.033447,969.320312 
z"/>
<path fill="#7657B9" opacity="1.000000" stroke="none" 
	d="
M1038.004150,980.004639 
	C1040.042480,980.002197 1042.080811,979.999695 1044.554077,979.993530 
	C1044.989014,979.989868 1045.010376,980.010315 1045.017334,980.221924 
	C1045.024170,980.433472 1045.022705,980.837830 1045.022705,980.837769 
	C1042.966431,980.889709 1040.910034,980.941650 1038.421875,980.709534 
	C1037.989990,980.425537 1038.004150,980.004639 1038.004150,980.004639 
z"/>
<path fill="#7657B9" opacity="1.000000" stroke="none" 
	d="
M601.614929,915.075562 
	C601.125244,915.279053 600.267822,915.422729 599.215942,915.347656 
	C599.763367,915.091187 600.505249,915.053467 601.614929,915.075562 
z"/>
<path fill="#7657B9" opacity="1.000000" stroke="none" 
	d="
M903.023804,975.313599 
	C903.549622,975.538696 904.149353,976.062805 904.830688,976.885803 
	C904.307495,976.660645 903.702698,976.136597 903.023804,975.313599 
z"/>
<path fill="#7750C9" opacity="1.000000" stroke="none" 
	d="
M1045.187988,980.884216 
	C1045.022705,980.837830 1045.024170,980.433472 1045.027100,980.231689 
	C1045.030029,980.029968 1045.455933,980.032837 1045.668823,980.036621 
	C1045.705566,980.337097 1045.529419,980.633850 1045.187988,980.884216 
z"/>
<path fill="#7657B9" opacity="1.000000" stroke="none" 
	d="
M1282.151123,976.248535 
	C1282.540161,976.223389 1283.100708,976.441223 1283.772705,976.953186 
	C1283.363525,976.995422 1282.843018,976.743469 1282.151123,976.248535 
z"/>
<path fill="#7657B9" opacity="1.000000" stroke="none" 
	d="
M901.769409,973.431946 
	C902.130127,973.563110 902.528870,973.991455 902.950256,974.735107 
	C902.584473,974.609985 902.195984,974.169556 901.769409,973.431946 
z"/>
<path fill="#7657B9" opacity="1.000000" stroke="none" 
	d="
M1281.081543,975.259827 
	C1281.358032,975.112366 1281.608398,975.306396 1281.898193,975.798706 
	C1281.705811,975.851624 1281.411621,975.686401 1281.081543,975.259827 
z"/>
<path fill="#7750C9" opacity="1.000000" stroke="none" 
	d="
M1038.002075,980.002197 
	C1038.004150,980.004639 1037.989990,980.425537 1037.987549,980.635742 
	C1037.681274,980.716553 1037.377686,980.587158 1037.077393,980.189331 
	C1037.080811,979.920959 1037.093262,979.915039 1037.320557,979.944275 
	C1037.547852,979.973511 1037.993896,979.993347 1037.993896,979.993347 
	C1037.993896,979.993347 1038.000000,979.999817 1038.002075,980.002197 
z"/>
<path fill="#7657B9" opacity="1.000000" stroke="none" 
	d="
M1290.101807,973.695251 
	C1289.841797,973.763367 1289.559570,973.539734 1289.209229,973.046509 
	C1289.453979,972.985718 1289.766968,973.194641 1290.101807,973.695251 
z"/>
<path fill="#7657B9" opacity="1.000000" stroke="none" 
	d="
M900.870972,972.376465 
	C901.101562,972.297668 901.405273,972.492554 901.783203,972.957397 
	C901.553040,973.034912 901.248535,972.842529 900.870972,972.376465 
z"/>
<path fill="#F1EFF4" opacity="1.000000" stroke="none" 
	d="
M1071.130249,692.061768 
	C1061.564331,709.424683 1052.118042,726.427429 1042.795776,743.497925 
	C1040.734497,747.272278 1039.021729,751.247803 1037.336426,755.210571 
	C1036.754395,756.579163 1036.743286,758.190552 1036.471436,759.691040 
	C1036.955811,759.887207 1037.440186,760.083374 1037.924683,760.279541 
	C1038.546753,759.387207 1039.254883,758.542297 1039.778076,757.595215 
	C1046.435547,745.544312 1052.713013,733.262146 1059.896973,721.534851 
	C1062.396362,717.454712 1067.172485,714.792480 1070.812622,711.380066 
	C1073.484741,708.874939 1075.838745,706.013489 1078.615967,703.640503 
	C1086.867554,696.590149 1088.869873,687.093689 1090.180786,676.944153 
	C1091.944702,663.285950 1094.443726,649.719482 1096.813965,636.146240 
	C1097.189087,633.998718 1098.545898,632.022644 1099.448730,629.967285 
	C1100.020264,629.915039 1100.591919,629.862793 1101.163452,629.810486 
	C1101.783813,631.780884 1102.732056,633.711853 1102.974121,635.727600 
	C1105.481934,656.615540 1103.507324,677.302002 1099.403442,697.783997 
	C1098.429688,702.644165 1096.454834,707.781555 1093.486450,711.685974 
	C1075.647949,735.150391 1057.201782,758.152466 1039.334961,781.595764 
	C1028.865112,795.333496 1017.465881,808.712158 1012.809875,825.878418 
	C1010.294250,835.153015 1008.613525,844.677246 1007.014404,854.166016 
	C1006.378052,857.942078 1005.319580,859.517822 1001.157593,859.461914 
	C983.664307,859.226990 966.164673,859.252380 948.670532,859.454834 
	C945.016052,859.497131 943.854065,858.322510 943.366943,854.820068 
	C942.245667,846.757324 940.860107,838.714600 939.172363,830.750549 
	C935.173218,811.879822 923.715698,796.997375 912.338196,782.215332 
	C896.493408,761.629333 880.574524,741.084045 864.075989,721.024048 
	C854.868652,709.829285 849.416626,697.655334 848.081299,683.229370 
	C846.559509,666.788940 844.905945,650.400452 847.033813,633.909973 
	C847.277161,632.023987 847.913269,630.188660 848.367249,628.329834 
	C848.877502,628.192200 849.387695,628.054626 849.897888,627.916992 
	C850.946899,629.928650 852.530090,631.833984 852.955200,633.969849 
	C855.125549,644.875854 857.099854,655.824158 858.930603,666.793091 
	C859.886841,672.522583 860.179688,678.364929 861.186768,684.083191 
	C862.209351,689.889526 864.409851,695.153931 868.985962,699.339844 
	C875.733276,705.511475 882.201721,711.988831 888.756348,718.369385 
	C889.695618,719.283569 890.645020,720.279907 891.264893,721.415527 
	C897.860046,733.497131 904.385803,745.616577 910.953674,757.713135 
	C911.163086,758.098816 911.618958,758.350525 912.808044,759.446228 
	C912.808044,757.023682 913.286133,755.268005 912.723755,753.959595 
	C910.494507,748.773132 908.144592,743.616394 905.469177,738.647888 
	C895.773621,720.642578 885.811462,702.779663 876.238464,684.710205 
	C874.332703,681.113037 873.466858,676.892639 872.584229,672.858398 
	C872.182434,671.021667 872.907654,668.938416 873.264160,665.654663 
	C875.690735,667.616577 877.087524,668.464539 878.127747,669.630554 
	C887.978638,680.673340 898.361511,691.311401 907.399902,702.988037 
	C915.465332,713.407715 924.186584,722.705261 935.445923,729.609497 
	C948.544983,737.642029 958.199219,748.855896 965.567139,762.279602 
	C974.505859,778.565247 975.165955,795.271423 968.466003,812.294678 
	C965.609741,819.552063 961.819458,826.440002 958.515137,833.524536 
	C957.842163,834.967407 957.445129,836.538940 957.840332,838.427246 
	C965.878723,827.252808 971.586487,815.030945 975.121094,800.353271 
	C978.900940,814.337463 984.555481,825.992004 991.107666,837.211487 
	C991.758179,836.960693 992.408630,836.709900 993.059143,836.459106 
	C992.477173,834.848389 992.062622,833.151672 991.286499,831.640686 
	C985.578918,820.529968 980.046326,809.443726 977.814575,796.893799 
	C975.963379,786.484375 978.299011,777.014587 982.540466,767.855896 
	C989.103821,753.683655 998.291077,741.325073 1011.814392,733.251282 
	C1027.589233,723.833313 1038.384888,709.941406 1049.307373,695.774353 
	C1056.086914,686.981018 1064.358887,679.335327 1072.009399,671.220276 
	C1072.992310,670.177673 1074.267456,669.410522 1076.722900,667.482788 
	C1078.736328,677.335022 1074.796509,684.488770 1071.130249,692.061768 
z"/>
<path fill="#F1EFF3" opacity="1.000000" stroke="none" 
	d="
M892.597595,761.865967 
	C893.365234,764.206116 894.309082,766.244690 894.315491,768.286255 
	C894.409119,797.928406 894.296692,827.571411 894.465698,857.212891 
	C894.489807,861.429932 893.177307,862.576233 889.088318,862.505066 
	C875.953796,862.276428 862.812805,862.419983 849.283325,862.419983 
	C849.283325,810.250671 849.283325,758.462891 849.283325,706.543335 
	C863.728577,725.004028 878.033203,743.284912 892.597595,761.865967 
z"/>
<path fill="#F1EFF3" opacity="1.000000" stroke="none" 
	d="
M1055.658325,852.974731 
	C1055.655396,825.148499 1055.588989,797.819946 1055.751709,770.492737 
	C1055.767334,767.874207 1056.555176,764.769897 1058.094482,762.727783 
	C1071.623047,744.779480 1085.402100,727.019958 1099.120972,709.215271 
	C1099.402344,708.850098 1099.851685,708.614258 1100.707764,707.930725 
	C1100.707764,759.506470 1100.707764,810.628296 1100.707764,862.427429 
	C1094.426392,862.427429 1088.316772,862.426819 1082.207153,862.427612 
	C1075.375122,862.428467 1068.525757,862.135071 1061.716797,862.532654 
	C1056.923828,862.812561 1054.886719,861.323486 1055.642212,856.468689 
	C1055.794067,855.492859 1055.660522,854.472534 1055.658325,852.974731 
z"/>
<path fill="#EEE6F9" opacity="1.000000" stroke="none" 
	d="
M1046.768311,664.212524 
	C1046.574829,663.496582 1046.344482,663.152405 1046.402344,662.866577 
	C1046.834106,660.735413 1047.322876,658.615723 1047.793823,656.492493 
	C1049.878418,657.575867 1052.971924,658.133667 1053.860718,659.839905 
	C1056.668945,665.230896 1058.930664,670.965576 1060.729614,676.776062 
	C1061.111572,678.009460 1058.680664,680.154968 1057.472656,681.827454 
	C1056.319702,683.423340 1055.071533,684.950256 1053.069580,687.534363 
	C1050.707153,678.806152 1048.786133,671.708679 1046.768311,664.212524 
z"/>
<path fill="#EEE6F9" opacity="1.000000" stroke="none" 
	d="
M898.980896,677.997009 
	C898.415588,680.258972 897.902832,682.119202 897.019714,685.323059 
	C894.064514,682.081421 891.717896,679.609131 889.520569,677.010559 
	C889.084290,676.494629 888.896606,675.368164 889.143127,674.737854 
	C891.311340,669.195129 893.278381,663.528870 896.047119,658.291565 
	C896.942627,656.597595 900.039124,656.067139 902.128845,655.004456 
	C902.627563,657.115784 903.876892,659.380554 903.482544,661.309326 
	C902.357666,666.811218 900.563965,672.176331 898.980896,677.997009 
z"/>
<path fill="#EEE6F9" opacity="1.000000" stroke="none" 
	d="
M906.963440,697.026367 
	C902.046814,690.629578 904.802185,678.998047 913.132202,674.289368 
	C913.416443,679.706238 913.920044,684.528503 913.851624,689.342773 
	C913.783386,694.144287 913.141785,698.937622 912.680237,704.611267 
	C910.614807,701.881531 908.889465,699.601196 906.963440,697.026367 
z"/>
<path fill="#EEE6F9" opacity="1.000000" stroke="none" 
	d="
M1039.695312,695.161255 
	C1035.228394,689.909058 1034.583008,683.391479 1038.258057,675.915222 
	C1043.833740,679.923401 1046.015747,686.356689 1045.880859,691.838257 
	C1045.765991,696.509705 1041.177856,701.071228 1037.855591,705.400696 
	C1038.277710,701.985352 1033.786011,697.844910 1039.695312,695.161255 
z"/>
<path fill="#EEE6F9" opacity="1.000000" stroke="none" 
	d="
M1069.074097,649.204834 
	C1071.391235,652.133728 1073.508301,655.075256 1075.217041,658.237488 
	C1076.204346,660.064392 1076.532837,662.247375 1077.023560,663.835815 
	C1073.249023,666.705200 1069.890869,669.258057 1065.685181,672.455200 
	C1066.695557,664.403992 1064.575073,656.582703 1069.074097,649.204834 
z"/>
<path fill="#EEE6F9" opacity="1.000000" stroke="none" 
	d="
M874.106934,658.233398 
	C875.912170,654.236633 877.627991,650.623108 879.343811,647.009583 
	C879.988892,647.133057 880.633911,647.256531 881.278931,647.380005 
	C885.183533,654.481934 883.415894,662.452820 884.262817,670.681946 
	C880.416870,667.821045 877.094177,665.349426 873.103638,662.380981 
	C873.268188,661.703125 873.642883,660.159912 874.106934,658.233398 
z"/>
<path fill="#EEE6F9" opacity="1.000000" stroke="none" 
	d="
M873.556885,686.432739 
	C877.717163,694.761475 881.686584,702.778687 885.718018,710.921204 
	C875.156860,704.874207 871.440674,697.373291 871.388733,681.536682 
	C872.211609,683.444702 872.788757,684.782959 873.556885,686.432739 
z"/>
<path fill="#EEE6F9" opacity="1.000000" stroke="none" 
	d="
M1065.004761,712.003601 
	C1069.502930,702.425110 1074.001221,692.846619 1078.458008,683.356262 
	C1079.404297,695.200745 1076.009399,705.185730 1065.342041,712.018799 
	C1065.000000,711.999634 1065.004761,712.003601 1065.004761,712.003601 
z"/>
<path fill="#EEE6F9" opacity="1.000000" stroke="none" 
	d="
M1064.996338,711.996033 
	C1064.719238,712.607361 1064.446045,713.222351 1064.172852,713.837341 
	C1064.029785,713.767090 1063.886597,713.696777 1063.743530,713.626526 
	C1064.016602,713.137695 1064.289673,712.648926 1064.783691,712.081848 
	C1065.004761,712.003601 1065.000000,711.999634 1064.996338,711.996033 
z"/>
<path fill="#7657B9" opacity="1.000000" stroke="none" 
	d="
M604.707642,918.087891 
	C604.876953,918.843140 604.876953,919.412170 604.876953,919.981140 
	C604.661255,919.969604 604.445557,919.958069 604.229858,919.946472 
	C604.332703,919.264893 604.435486,918.583252 604.707642,918.087891 
z"/>
<path fill="#F1EFF4" opacity="1.000000" stroke="none" 
	d="
M1178.587646,960.122925 
	C1176.069702,950.548584 1175.699219,941.368958 1178.741455,932.244202 
	C1181.571045,923.756897 1187.356689,918.390503 1196.248047,917.217285 
	C1205.391479,916.010864 1212.904419,919.565002 1218.493408,926.834167 
	C1226.461670,937.197876 1227.483643,957.273865 1220.791992,968.578857 
	C1213.164062,981.465637 1194.064697,982.580505 1184.153931,970.481079 
	C1181.797363,967.604065 1180.506592,963.854004 1178.587646,960.122925 
z"/>
<path fill="#F1EFF4" opacity="1.000000" stroke="none" 
	d="
M763.872314,969.037720 
	C756.137390,957.557068 755.476501,945.397522 759.175354,932.919617 
	C761.726746,924.312744 767.492554,918.474915 776.710754,917.220093 
	C786.074585,915.945496 794.130615,919.242554 799.236877,927.065308 
	C807.910950,940.353943 808.705261,954.720398 801.155579,968.691833 
	C793.787598,982.326843 774.934082,982.368713 763.872314,969.037720 
z"/>
<path fill="#7657B9" opacity="1.000000" stroke="none" 
	d="
M1037.997314,979.525269 
	C1037.993896,979.993347 1037.547852,979.973511 1037.328125,979.936584 
	C1037.108521,963.348328 1037.108521,946.796936 1037.108521,930.245605 
	C1037.406006,930.243896 1037.703369,930.242188 1038.000854,930.240479 
	C1038.000854,946.512695 1038.000854,962.784973 1037.997314,979.525269 
z"/>
<path fill="#F1EFF4" opacity="1.000000" stroke="none" 
	d="
M661.008606,927.013306 
	C669.518677,916.833984 676.911438,914.832947 690.256287,919.266357 
	C690.672058,919.323303 690.731812,919.297974 690.876648,919.585571 
	C692.984192,921.291321 694.946838,922.709595 696.939148,924.078369 
	C696.968750,924.028931 696.871582,924.090942 696.987061,924.414429 
	C707.592651,938.475891 708.260559,956.051697 698.917969,971.934692 
	C698.939819,971.938110 698.906677,971.899353 698.906677,971.899353 
	C690.506104,979.554382 681.227478,981.059875 670.609253,975.841431 
	C670.223572,975.798035 670.212524,975.847473 670.108765,975.596985 
	C669.677795,975.211914 669.350647,975.077332 669.016968,974.972717 
	C669.010437,975.002747 669.055786,974.961243 668.881348,974.722839 
	C668.185242,974.234253 667.663452,973.984009 667.133057,973.798096 
	C667.124329,973.862366 667.250793,973.833374 667.152832,973.522705 
	C665.691772,971.829651 664.328613,970.447266 662.983887,969.037842 
	C663.002197,969.010864 662.939453,969.029114 662.876160,968.736450 
	C662.293152,967.876953 661.773376,967.310059 661.243591,966.847534 
	C661.233582,966.951904 661.303162,966.754089 661.256348,966.415588 
	C660.527344,964.879883 659.845154,963.682678 659.188110,962.349731 
	C659.213257,962.214050 659.043945,961.995972 659.016235,961.595581 
	C658.227783,957.496216 657.466980,953.797241 656.756836,949.646545 
	C656.783875,946.771057 656.760315,944.347290 656.833618,941.531738 
	C657.942749,937.085938 658.954895,933.031982 659.985962,928.983276 
	C660.004883,928.988586 659.973267,928.961670 660.177734,928.760681 
	C660.592102,928.041504 660.802063,927.523376 661.006287,927.002563 
	C661.000610,927.000000 661.008606,927.013306 661.008606,927.013306 
z"/>
<path fill="#794FCE" opacity="1.000000" stroke="none" 
	d="
M659.043945,961.995972 
	C659.043945,961.995972 659.213257,962.214050 659.145386,962.778015 
	C659.819397,964.479309 660.561279,965.616699 661.303223,966.754089 
	C661.303162,966.754089 661.233582,966.951904 661.197021,967.185181 
	C661.753418,967.955383 662.346436,968.492249 662.939453,969.029114 
	C662.939453,969.029114 663.002197,969.010864 662.997131,969.395874 
	C664.411682,971.131653 665.831238,972.482483 667.250793,973.833374 
	C667.250793,973.833374 667.124329,973.862366 667.238770,974.097778 
	C667.920776,974.542480 668.488281,974.751892 669.055786,974.961243 
	C669.055786,974.961243 669.010437,975.002747 669.140686,975.207520 
	C669.584778,975.557373 669.898682,975.702454 670.212524,975.847473 
	C670.212524,975.847473 670.223572,975.798035 670.239990,975.777954 
	C673.686584,977.598633 677.116699,979.439453 679.979065,980.975525 
	C673.981628,984.276978 658.131592,977.306519 652.470642,966.373596 
	C646.028564,953.931763 647.241089,931.345215 661.965454,921.781006 
	C661.567200,923.812378 661.322632,925.059998 661.043335,926.660461 
	C661.008606,927.013306 661.000610,927.000000 660.762695,927.165527 
	C660.340942,927.874573 660.157104,928.418091 659.973267,928.961670 
	C659.973267,928.961670 660.004883,928.988586 659.625000,929.057495 
	C658.408997,933.392151 657.572876,937.657837 656.736755,941.923523 
	C656.760315,944.347290 656.783875,946.771057 656.539673,949.961548 
	C656.173645,954.735657 654.914978,959.028564 659.043945,961.995972 
z"/>
<path fill="#794FCE" opacity="1.000000" stroke="none" 
	d="
M690.640320,919.329834 
	C691.697327,916.084595 694.045349,916.764282 696.298767,917.629639 
	C705.079407,921.001953 709.719910,928.068054 711.833496,936.650391 
	C714.190552,946.221069 713.098694,955.771179 708.551758,964.595215 
	C706.838440,967.920166 704.109009,970.738708 701.666260,973.639282 
	C701.464294,973.879150 699.904785,972.975891 698.941345,972.251587 
	C698.906677,971.899353 698.939819,971.938110 699.278137,971.918640 
	C701.738831,967.977905 705.098083,964.238037 705.705627,960.094604 
	C706.721130,953.168640 706.825012,945.848389 705.712341,938.952271 
	C704.799622,933.295837 703.768799,926.657471 696.871582,924.090942 
	C696.871582,924.090942 696.968750,924.028931 696.934387,923.717651 
	C694.843933,922.036926 692.787903,920.667480 690.731812,919.297974 
	C690.731812,919.297974 690.672058,919.323303 690.640320,919.329834 
z"/>
<path fill="#794FCE" opacity="1.000000" stroke="none" 
	d="
M688.549072,916.466675 
	C688.580627,916.519287 688.517578,916.414062 688.549072,916.466675 
z"/>
<path fill="#EEE6F9" opacity="1.000000" stroke="none" 
	d="
M980.923157,951.504578 
	C974.837646,951.872681 968.728027,951.872681 961.752075,951.872681 
	C965.294983,943.320801 968.666138,935.183594 972.075928,926.699524 
	C975.042664,934.613892 977.970886,942.875183 980.923157,951.504578 
z"/>
<path fill="#7A5FB4" opacity="1.000000" stroke="none" 
	d="
M696.987061,924.414429 
	C703.768799,926.657471 704.799622,933.295837 705.712341,938.952271 
	C706.825012,945.848389 706.721130,953.168640 705.705627,960.094604 
	C705.098083,964.238037 701.738831,967.977905 699.256226,971.915161 
	C708.260559,956.051697 707.592651,938.475891 696.987061,924.414429 
z"/>
<path fill="#7A5FB4" opacity="1.000000" stroke="none" 
	d="
M656.833618,941.531738 
	C657.572876,937.657837 658.408997,933.392151 659.606079,929.052246 
	C658.954895,933.031982 657.942749,937.085938 656.833618,941.531738 
z"/>
<path fill="#7A5FB4" opacity="1.000000" stroke="none" 
	d="
M659.016235,961.595581 
	C654.914978,959.028564 656.173645,954.735657 656.489014,950.413269 
	C657.466980,953.797241 658.227783,957.496216 659.016235,961.595581 
z"/>
<path fill="#7A5FB4" opacity="1.000000" stroke="none" 
	d="
M690.876648,919.585571 
	C692.787903,920.667480 694.843933,922.036926 696.904785,923.767090 
	C694.946838,922.709595 692.984192,921.291321 690.876648,919.585571 
z"/>
<path fill="#7A5FB4" opacity="1.000000" stroke="none" 
	d="
M667.152832,973.522705 
	C665.831238,972.482483 664.411682,971.131653 662.978760,969.422852 
	C664.328613,970.447266 665.691772,971.829651 667.152832,973.522705 
z"/>
<path fill="#7A5FB4" opacity="1.000000" stroke="none" 
	d="
M661.256348,966.415588 
	C660.561279,965.616699 659.819397,964.479309 659.120239,962.913696 
	C659.845154,963.682678 660.527344,964.879883 661.256348,966.415588 
z"/>
<path fill="#7A5FB4" opacity="1.000000" stroke="none" 
	d="
M662.876160,968.736450 
	C662.346436,968.492249 661.753418,967.955383 661.207031,967.080811 
	C661.773376,967.310059 662.293152,967.876953 662.876160,968.736450 
z"/>
<path fill="#7A5FB4" opacity="1.000000" stroke="none" 
	d="
M660.177734,928.760681 
	C660.157104,928.418091 660.340942,927.874573 660.768372,927.168091 
	C660.802063,927.523376 660.592102,928.041504 660.177734,928.760681 
z"/>
<path fill="#7A5FB4" opacity="1.000000" stroke="none" 
	d="
M668.881348,974.722839 
	C668.488281,974.751892 667.920776,974.542480 667.247498,974.033447 
	C667.663452,973.984009 668.185242,974.234253 668.881348,974.722839 
z"/>
<path fill="#7A5FB4" opacity="1.000000" stroke="none" 
	d="
M670.108765,975.596985 
	C669.898682,975.702454 669.584778,975.557373 669.147217,975.177490 
	C669.350647,975.077332 669.677795,975.211914 670.108765,975.596985 
z"/>
</svg>